<?xml version="1.0" encoding="utf-8"?>
<!-- Generator: Adobe Illustrator 22.1.0, SVG Export Plug-In . SVG Version: 6.00 Build 0)  -->
<svg version="1.1" id="レイヤー_1" xmlns="http://www.w3.org/2000/svg" xmlns:xlink="http://www.w3.org/1999/xlink" x="0px"
	 y="0px" viewBox="0 0 368.2 64" style="enable-background:new 0 0 368.2 64;" xml:space="preserve">
<style type="text/css">
	.st0{fill:none;stroke:#C30D23;stroke-width:5.4;stroke-miterlimit:10;}
	.st1{fill:none;stroke:#0B3A95;stroke-width:5.4;stroke-miterlimit:10;}
	.st2{fill:#053989;}
</style>
<title>logo</title>
<line class="st0" x1="41.3" y1="41.9" x2="92.8" y2="25.3"/>
<polyline class="st1" points="2.6,62.6 16.7,21.5 24,39.4 31.9,11 41,50.6 47.4,48.6 50.1,56.9 72.6,12.7 83.1,42.5 "/>
<path class="st2" d="M109.2,45.2h-6.6l-7.4-11h-0.7v11h-5.3V17.8h7.9c3,0,5.5,0.7,7,1.9c1.8,1.6,2.7,3.8,2.7,6.1
	c0.1,2.3-0.8,4.5-2.5,6c-1.1,0.9-2.4,1.5-3.8,1.7L109.2,45.2z M96.1,30.4c3.4,0,5.2-1.5,5.2-4.2s-1.8-4.1-5.1-4.1h-1.6v8.3H96.1z"/>
<path class="st2" d="M128.1,17.8h6.7l-11.6,12.6l12.2,14.7h-7l-9.7-12.3l-0.7,0.7v11.6h-5.3V17.8h5.3v11.6L128.1,17.8z"/>
<path class="st2" d="M144.2,22.4v6.1h9.4v4.6h-9.4v7.4h9.8v4.6h-15.1V17.8H154v4.6H144.2z"/>
<path class="st2" d="M162.4,45.2V22.4h-6.1v-4.6h17.6v4.6h-6.1v22.7H162.4z"/>
<path class="st2" d="M207.6,45.2H201l-7.4-11h-0.7v11h-5.3V17.8h7.9c3,0,5.5,0.7,7,1.9c1.8,1.6,2.7,3.8,2.7,6.1
	c0.1,2.3-0.8,4.5-2.5,6c-1.1,0.9-2.4,1.5-3.8,1.7L207.6,45.2z M194.5,30.4c3.4,0,5.2-1.5,5.2-4.2s-1.8-4.1-5.1-4.1h-1.6v8.3H194.5z"
	/>
<path class="st2" d="M216.5,22.4v6.1h9.4v4.6h-9.4v7.4h9.8v4.6h-15.1V17.8h15.1v4.6H216.5z"/>
<path class="st2" d="M236.8,45.2h-5.3V17.8h8c3.6,0,5.5,0.6,7.2,2.1c1.8,1.7,2.8,4.1,2.8,6.6c0,2.2-0.7,4.4-2.2,6.1
	c-1.6,1.6-3.8,2.4-7,2.4h-3.4V45.2z M239,30.4c3.3,0,5-1.3,5-3.9c0-1.2-0.5-2.4-1.4-3.2c-0.8-0.6-2-0.9-3.9-0.9h-1.8v8H239z"/>
<path class="st2" d="M281.2,31.5c0,8.1-6.4,14.3-14.8,14.3c-7.9,0.1-14.3-6.1-14.5-14c0-0.2,0-0.3,0-0.5c0-7.8,6.6-14.1,14.7-14.1
	c7.9-0.2,14.4,6.1,14.6,14C281.2,31.3,281.2,31.4,281.2,31.5z M257.5,31.4c0.1,5,4.3,9.5,9.3,9.4c5-0.1,9-4.8,8.9-9.8
	c-0.1-5-4.2-9-9.1-8.9C261.5,22.2,257.5,26.3,257.5,31.4z"/>
<path class="st2" d="M306.1,45.2h-6.6l-7.4-11h-0.7v11h-5.3V17.8h7.9c3,0,5.5,0.7,7,1.9c1.8,1.6,2.7,3.8,2.7,6.1
	c0.1,2.3-0.8,4.5-2.5,6c-1.1,0.9-2.4,1.5-3.8,1.7L306.1,45.2z M293,30.4c3.4,0,5.2-1.5,5.2-4.2s-1.8-4.1-5.1-4.1h-1.6v8.3H293z"/>
<path class="st2" d="M313,45.2V22.4h-6.1v-4.6h17.6v4.6h-6.1v22.7H313z"/>
<path class="st2" d="M333.2,22.4v6.1h9.4v4.6h-9.4v7.4h9.8v4.6h-15.1V17.8H343v4.6H333.2z"/>
<path class="st2" d="M368.2,45.2h-6.6l-7.4-11h-0.7v11h-5.3V17.8h7.9c3,0,5.5,0.7,7,1.9c1.8,1.6,2.7,3.8,2.7,6.1
	c0.1,2.3-0.8,4.5-2.5,6c-1.1,0.9-2.4,1.5-3.8,1.7L368.2,45.2z M355.1,30.4c3.4,0,5.2-1.5,5.2-4.2s-1.8-4.1-5.1-4.1h-1.6v8.3H355.1z"
	/>
</svg>
