<svg id="レイヤー_1" data-name="レイヤー 1" xmlns="http://www.w3.org/2000/svg" xmlns:xlink="http://www.w3.org/1999/xlink" viewBox="0 0 655.53 362.841"><defs><clipPath id="clip-path" transform="translate(-4.51 -4.721)"><path d="M73.04,294.014v1.968a22.008,22.008,0,0,1-44,0v-1.968Z" style="fill:none"/></clipPath><clipPath id="clip-path-2" transform="translate(-4.51 -4.721)"><path d="M453.287,66.515a47.356,47.356,0,0,1-14.323,2.408c4.668,3.893,12.985,11.238,26.7,7.044A21.308,21.308,0,0,1,453.287,66.515Z" style="fill:none;clip-rule:evenodd"/></clipPath><clipPath id="clip-path-3" transform="translate(-4.51 -4.721)"><rect x="389.462" y="-8.806" width="155.598" height="155.598" style="fill:none"/></clipPath></defs><title>architecture</title><g id="shape1033-2094"><path d="M323.721,117.625c-6.361,0-11.621-1.536-11.621-3.507s5.145-3.507,11.621-3.507c6.361,0,11.507,1.536,11.507,3.507S330.185,117.625,323.721,117.625Zm-16.216,20.158v6.361c0,2.957,5.913,6.246,13.695,6.8h5.145c7.782-.551,13.695-3.174,13.695-6.246V114.783c0-3.289-7.347-6.463-16.332-6.463s-16.216,2.957-16.216,6.361v13.362l.013,9.74Z" transform="translate(-4.51 -4.721)" style="fill:#2a3282"/></g><polyline points="655.03 358.341 655.03 362.341 651.03 362.341" style="fill:none;stroke:#333;stroke-miterlimit:10"/><line x1="643.03" y1="362.341" x2="279.03" y2="362.341" style="fill:none;stroke:#333;stroke-miterlimit:10;stroke-dasharray:8,8"/><polyline points="275.03 362.341 271.03 362.341 271.03 358.341" style="fill:none;stroke:#333;stroke-miterlimit:10"/><line x1="271.03" y1="350.392" x2="271.03" y2="52.315" style="fill:none;stroke:#333;stroke-miterlimit:10;stroke-dasharray:7.948718070983887,7.948718070983887"/><polyline points="271.03 48.341 271.03 44.341 275.03 44.341" style="fill:none;stroke:#333;stroke-miterlimit:10"/><line x1="283.03" y1="44.341" x2="647.03" y2="44.341" style="fill:none;stroke:#333;stroke-miterlimit:10;stroke-dasharray:8,8"/><polyline points="651.03 44.341 655.03 44.341 655.03 48.341" style="fill:none;stroke:#333;stroke-miterlimit:10"/><line x1="655.03" y1="56.29" x2="655.03" y2="354.366" style="fill:none;stroke:#333;stroke-miterlimit:10;stroke-dasharray:7.948718070983887,7.948718070983887"/><path id="path4696" d="M585.788,120.048c-1.788-1.375-2.476,5.365-6.052,5.365-4.126,0-5.5-17.882-8.665-17.882-.963,0-1.1-.55-10.867,29.3-3.989,12.379,6.052,21.733,16.231,21.733,6.327,0,16.918-4.127,16.918-17.331C593.353,131.465,588.539,122.111,585.788,120.048ZM576.3,151.822a9.638,9.638,0,1,1,9.216-9.629A9.4,9.4,0,0,1,576.3,151.822Z" transform="translate(-4.51 -4.721)" style="fill:#f05732"/><path id="path4698" d="M581.8,103.267c-.687,0-2.476,3.439-2.476,4.952a2.49,2.49,0,1,0,4.952,0C584.138,106.706,582.35,103.267,581.8,103.267Z" transform="translate(-4.51 -4.721)" style="fill:#9e529f"/><path d="M73.04,294.014v1.968a22.008,22.008,0,0,1-44,0v-1.968Z" transform="translate(-4.51 -4.721)" style="fill:#4f4f4f"/><g style="clip-path:url(#clip-path)"><path d="M72.24,294.014v1.616a5.489,5.489,0,0,1,.8,3.256v-1.968c-.079-1.078,0-2.166,0-3.256" transform="translate(-4.51 -4.721)" style="fill:#4f4f4f"/><path d="M73.04,297.214v1.74a19.38,19.38,0,0,1-.8,3.325v-1.813a19.292,19.292,0,0,0,.8-3.317" transform="translate(-4.51 -4.721)" style="fill:#4f4f4f"/><path d="M72.24,300.414V302.6a19.778,19.778,0,0,1-1.6,3.556v-1.789a19.682,19.682,0,0,0,1.6-3.564" transform="translate(-4.51 -4.721)" style="fill:#4f4f4f"/><path d="M69.84,304.414v2.014a21.86,21.86,0,0,1-40.8-10.7v-1.96a21.86,21.86,0,0,0,40.8,10.7" transform="translate(-4.51 -4.721)" style="fill:#4f4f4f"/></g><path d="M51.04,271.822a21.832,21.832,0,1,1-22,21.832A21.832,21.832,0,0,1,51.04,271.822Z" transform="translate(-4.51 -4.721)" style="fill:#7d7c7c"/><circle cx="46.53" cy="288.917" r="6.8" style="fill:none;stroke:#fff;stroke-miterlimit:10"/><circle cx="46.53" cy="288.917" r="4.192" style="fill:#fff"/><g id="Web_server" data-name="Web server"><path d="M473.907,301.386a14.134,14.134,0,1,1,14.133-14.133A14.165,14.165,0,0,1,473.907,301.386Zm-3.461-7.341c1.007,3.46,2.454,5.2,3.461,5.2s2.6-1.592,3.46-5.2a20.582,20.582,0,0,0-6.921,0Zm-5.2,1.3a10.682,10.682,0,0,0,4.614,3.021,15.174,15.174,0,0,1-1.593-4.046A15.328,15.328,0,0,0,465.247,295.345Zm14.426-1.007a21.13,21.13,0,0,1-1.592,4.046,11.246,11.246,0,0,0,4.613-3.167A27.948,27.948,0,0,0,479.673,294.338Zm-17.593-6.092a11.618,11.618,0,0,0,1.739,5.2,15.239,15.239,0,0,1,3.9-1.3,35.4,35.4,0,0,1-.44-3.9Zm18.033,4.082a13.541,13.541,0,0,1,3.9,1.3,11.778,11.778,0,0,0,1.74-5.2h-5.328A13.744,13.744,0,0,1,480.113,292.328Zm-10.527-4.082a27.466,27.466,0,0,0,.293,3.46,37.44,37.44,0,0,1,4.046-.293,40.3,40.3,0,0,1,4.046.293,27.654,27.654,0,0,0,.293-3.46Zm16.294-2.2a11.558,11.558,0,0,0-2.014-5.621,16.241,16.241,0,0,1-3.753,1.3,19.718,19.718,0,0,1,.439,4.321Zm-7.506,0a16.747,16.747,0,0,0-.44-3.9,26.1,26.1,0,0,1-7.8,0,16.747,16.747,0,0,0-.439,3.9Zm-10.967,0a21.493,21.493,0,0,1,.44-4.321,14.148,14.148,0,0,1-3.753-1.3,13.571,13.571,0,0,0-2.161,5.621Zm3.186-5.991a20.576,20.576,0,0,0,6.92,0c-1.007-3.314-2.453-4.76-3.46-4.76C472.9,275.3,471.453,276.744,470.593,280.058Zm-5.053-1.3a16.237,16.237,0,0,0,2.893.861,11.675,11.675,0,0,1,1.592-3.607A11.156,11.156,0,0,0,465.54,278.758Zm12.541-2.746a20.513,20.513,0,0,1,1.592,3.607c1.007-.293,2.014-.586,2.893-.861A13.566,13.566,0,0,0,478.081,276.012Z" transform="translate(-4.51 -4.721)" style="fill:#00188f"/><path d="M473.907,273.412A13.694,13.694,0,1,0,487.6,287.106a13.779,13.779,0,0,0-13.694-13.694Zm0,26.107c-1.593,0-3.168-2.307-4.046-5.913a28.082,28.082,0,0,1,8.092,0c-.879,3.753-2.472,5.913-4.046,5.913Zm0-7.465a42.288,42.288,0,0,0-4.321.293,21.117,21.117,0,0,1-.439-4.467h9.666a21,21,0,0,1-.439,4.467,38.64,38.64,0,0,0-4.467-.293Zm0-17.195c1.446,0,3.02,2.16,4.046,5.62a34.91,34.91,0,0,1-4.046.293,37.422,37.422,0,0,1-4.046-.293c1.007-3.607,2.6-5.62,4.046-5.62Zm0,7.089a42.287,42.287,0,0,0,4.32-.293,42.153,42.153,0,0,1,.586,4.76h-9.666a22.305,22.305,0,0,1,.585-4.76,19.261,19.261,0,0,0,4.175.293Zm-6.06,4.467h-6.353a12.209,12.209,0,0,1,2.453-6.481,17.984,17.984,0,0,0,4.467,1.446,42.414,42.414,0,0,0-.586,4.76l.019.275Zm0,1.465a22.3,22.3,0,0,0,.439,4.572,18.972,18.972,0,0,0-4.613,1.447,10.6,10.6,0,0,1-2.014-6.2h6.279v.183Zm12.266,0h6.206a13.24,13.24,0,0,1-2.014,6.206,19.242,19.242,0,0,0-4.613-1.446,25.639,25.639,0,0,0,.421-4.76Zm.091-1.447a26.672,26.672,0,0,0-.585-5.053,19.931,19.931,0,0,0,4.467-1.446,13.019,13.019,0,0,1,2.306,6.481H480.2v.018Zm2.93-7.528a15.265,15.265,0,0,1-3.9,1.3,13.168,13.168,0,0,0-2.307-4.906,12.149,12.149,0,0,1,6.207,3.607Zm-12.12-3.753a12.888,12.888,0,0,0-2.307,4.906,15.244,15.244,0,0,1-3.9-1.3,14.609,14.609,0,0,1,6.206-3.606ZM464.533,295.2a16.383,16.383,0,0,1,4.046-1.3,16.958,16.958,0,0,0,2.307,5.327,13.411,13.411,0,0,1-6.353-4.028Zm12.394,4.028a14.3,14.3,0,0,0,2.454-5.327,14.608,14.608,0,0,1,4.046,1.3,13.173,13.173,0,0,1-6.5,4.028Z" transform="translate(-4.51 -4.721)" style="fill:#00188f"/><path d="M457.5,286.415a16.558,16.558,0,0,1,14.463-15.726V244.454a2.9,2.9,0,0,0-2.893-2.892h-23.14a2.9,2.9,0,0,0-2.893,2.892V300.7h22.081a17.07,17.07,0,0,1-5.31-5.858H447.434V292.09h10.957a16.718,16.718,0,0,1-.594-2.929H447.434v-2.929H457.5v.183Zm-10.069-36.066h20.138v2.929H447.434Z" transform="translate(-4.51 -4.721)" style="fill:#00188f"/></g><path d="M228.536,54.387l19.489,2.9V58.99c0,2.538-8.729,4.582-19.5,4.582S209.04,61.528,209.04,58.99V57.137Z" transform="translate(-4.51 -4.721)" style="fill:#8c3123"/><path d="M228.522,66.636c8.193,0,15.21-1.177,18.149-2.85l.962-1.628.392-1.481v1.836L241.608,89.9c0,1.7-5.855,3.071-13.079,3.071S215.457,91.6,215.457,89.9L209.04,62.513v-1.8l1.48,3.131C213.466,65.488,220.417,66.636,228.522,66.636Z" transform="translate(-4.51 -4.721)" style="fill:#8c3123"/><path d="M228.54,52.562c10.769,0,19.5,2.052,19.5,4.575s-8.739,4.56-19.5,4.56-19.493-2.023-19.493-4.56S217.771,52.562,228.54,52.562Z" transform="translate(-4.51 -4.721)" style="fill:#e05243"/><path d="M228.54,64.875c10.041,0,18.3-1.773,19.375-4.068l-6.377,27.216c0,1.692-5.819,3.053-13,3.053s-13-1.353-13-3.045l-6.377-27.216C210.246,63.1,218.507,64.875,228.54,64.875Z" transform="translate(-4.51 -4.721)" style="fill:#e05243"/><path d="M449.658,4.721c2.53,0,4.078,1.247,4.078,4.281,0,2.819-1.331,4.282-4.09,4.282H446.84V4.721Zm-.275,7.867c2.362,0,3.538-.911,3.538-3.586,0-2.614-1.092-3.585-3.563-3.585h-1.7v7.171Z" transform="translate(-4.51 -4.721)"/><path d="M460.457,10.19c0,1.811-1.067,3.274-2.927,3.274A2.97,2.97,0,0,1,454.6,10.19a2.945,2.945,0,1,1,5.853,0Zm-2.927,2.639A2.369,2.369,0,0,0,459.7,10.19a2.368,2.368,0,0,0-2.182-2.639c-1.392,0-2.16,1.283-2.16,2.639S456.127,12.829,457.53,12.829Z" transform="translate(-4.51 -4.721)"/><path d="M466.709,9.039h-.756A1.674,1.674,0,0,0,464.2,7.551a2.368,2.368,0,0,0-2.171,2.639,2.37,2.37,0,0,0,2.171,2.639,1.858,1.858,0,0,0,1.8-1.764h.756a2.5,2.5,0,0,1-2.555,2.4,2.971,2.971,0,0,1-2.927-3.274A2.967,2.967,0,0,1,464.2,6.916,2.3,2.3,0,0,1,466.709,9.039Z" transform="translate(-4.51 -4.721)"/><path d="M468.571,4.721v5.373l3.43-3h1.008l-2.639,2.29,2.818,3.9h-.947L469.8,9.914l-1.224,1.02v2.35h-.756V4.721Z" transform="translate(-4.51 -4.721)"/><path d="M479.021,10.214v.18H474.26a2.183,2.183,0,0,0,2.038,2.435,1.876,1.876,0,0,0,1.943-1.584H479a2.521,2.521,0,0,1-2.7,2.219c-1.859,0-2.794-1.379-2.794-3.274,0-1.691.875-3.274,2.794-3.274C478.037,6.916,479.021,8.3,479.021,10.214Zm-.756-.456a2.083,2.083,0,0,0-1.979-2.207c-1.079,0-1.859.864-2.026,2.207Z" transform="translate(-4.51 -4.721)"/><path d="M483.1,7.767h-.12A2.123,2.123,0,0,0,480.8,10v3.286h-.755V7.1h.695V8.547h.025a2.255,2.255,0,0,1,2.182-1.535h.156Z" transform="translate(-4.51 -4.721)"/><path d="M530.974,170.721a2.448,2.448,0,1,1,0,4.893h-3v3.67h-.816v-8.563Zm-.18,4.2a1.662,1.662,0,0,0,1.895-1.751c0-1.067-.624-1.75-1.919-1.75h-2.794v3.5Z" transform="translate(-4.51 -4.721)"/><path d="M534.684,173.1l2.039,5.277,1.907-5.277h.755l-2.686,7.135a3.134,3.134,0,0,1-.576,1.02,1.355,1.355,0,0,1-1.019.324,2.139,2.139,0,0,1-.612-.06v-.636a2.863,2.863,0,0,0,.516.06.85.85,0,0,0,.72-.3,4.728,4.728,0,0,0,.623-1.38L533.88,173.1Z" transform="translate(-4.51 -4.721)"/><path d="M546.141,170.721v.7h-2.987v7.867h-.815v-7.867h-2.986v-.7Z" transform="translate(-4.51 -4.721)"/><path d="M552.345,176.19c0,1.811-1.067,3.274-2.927,3.274a3.295,3.295,0,1,1,2.927-3.274Zm-2.927,2.639a2.688,2.688,0,0,0-.011-5.278c-1.391,0-2.159,1.283-2.159,2.639S548.016,178.829,549.418,178.829Z" transform="translate(-4.51 -4.721)"/><path d="M556.534,173.767h-.119A2.123,2.123,0,0,0,554.231,176v3.286h-.755V173.1h.7v1.451h.024a2.258,2.258,0,0,1,2.183-1.535h.156Z" transform="translate(-4.51 -4.721)"/><path d="M562.377,175.039h-.756a1.674,1.674,0,0,0-1.751-1.488,2.69,2.69,0,0,0,0,5.278,1.858,1.858,0,0,0,1.8-1.764h.756a2.5,2.5,0,0,1-2.555,2.4,3.295,3.295,0,0,1,0-6.548A2.3,2.3,0,0,1,562.377,175.039Z" transform="translate(-4.51 -4.721)"/><path d="M564.228,170.721v3.442h.023a2.1,2.1,0,0,1,1.991-1.247c1.583,0,2.255.767,2.255,2.362v4.006h-.756V175.4c0-1.235-.515-1.847-1.571-1.847a1.973,1.973,0,0,0-1.942,2.183v3.55h-.756v-8.563Z" transform="translate(-4.51 -4.721)"/><path d="M575.83,173.251h.636v2.7h2.7v.635h-2.7v2.7h-.636v-2.7h-2.7v-.635h2.7Z" transform="translate(-4.51 -4.721)"/><path d="M585,171.237V173.1h1.259v.635H585v4.222c0,.54.155.768.695.768.132,0,.348-.013.564-.036v.647c-.288.012-.432.024-.671.024-1,0-1.344-.335-1.344-1.343v-4.282h-1.08V173.1h1.08v-1.859Z" transform="translate(-4.51 -4.721)"/><path d="M592.892,176.19c0,1.811-1.067,3.274-2.926,3.274a3.295,3.295,0,1,1,2.926-3.274Zm-2.926,2.639a2.688,2.688,0,0,0-.012-5.278c-1.391,0-2.159,1.283-2.159,2.639S588.563,178.829,589.966,178.829Z" transform="translate(-4.51 -4.721)"/><path d="M597.081,173.767h-.119A2.123,2.123,0,0,0,594.778,176v3.286h-.756V173.1h.7v1.451h.024a2.258,2.258,0,0,1,2.183-1.535h.156Z" transform="translate(-4.51 -4.721)"/><path d="M602.924,175.039h-.756a1.674,1.674,0,0,0-1.751-1.488,2.69,2.69,0,0,0,0,5.278,1.858,1.858,0,0,0,1.8-1.764h.756a2.5,2.5,0,0,1-2.555,2.4,3.295,3.295,0,0,1,0-6.548A2.3,2.3,0,0,1,602.924,175.039Z" transform="translate(-4.51 -4.721)"/><path d="M604.774,170.721v3.442h.024a2.1,2.1,0,0,1,1.991-1.247c1.583,0,2.255.767,2.255,2.362v4.006h-.756V175.4c0-1.235-.516-1.847-1.57-1.847a1.974,1.974,0,0,0-1.944,2.183v3.55h-.755v-8.563Z" transform="translate(-4.51 -4.721)"/><path d="M611.674,171.237V173.1h1.259v.635h-1.259v4.222c0,.54.155.768.7.768.131,0,.348-.013.563-.036v.647c-.287.012-.432.024-.671.024-.995,0-1.343-.335-1.343-1.343v-4.282h-1.08V173.1h1.08v-1.859Z" transform="translate(-4.51 -4.721)"/><path d="M619.231,176.214v.18H614.47a2.183,2.183,0,0,0,2.039,2.435,1.877,1.877,0,0,0,1.943-1.584h.756a2.522,2.522,0,0,1-2.7,2.219c-1.86,0-2.795-1.379-2.795-3.274,0-1.691.876-3.274,2.795-3.274C618.248,172.916,619.231,174.3,619.231,176.214Zm-.755-.456a2.083,2.083,0,0,0-1.979-2.207c-1.08,0-1.859.864-2.027,2.207Z" transform="translate(-4.51 -4.721)"/><path d="M620.674,173.1l1.763,2.35,1.727-2.35h.948l-2.231,2.962,2.411,3.226h-.96l-1.942-2.6-1.909,2.6h-.934l2.4-3.214-2.218-2.974Z" transform="translate(-4.51 -4.721)"/><path d="M627.226,171.237V173.1h1.259v.635h-1.259v4.222c0,.54.156.768.7.768.133,0,.348-.013.564-.036v.647c-.288.012-.431.024-.672.024-1,0-1.343-.335-1.343-1.343v-4.282h-1.079V173.1h1.079v-1.859Z" transform="translate(-4.51 -4.721)"/><path d="M202.848,30.721l3.358,8.563h-.876l-1.043-2.662h-3.9l-1.032,2.662h-.875l3.454-8.563Zm-2.207,5.205h3.37l-1.655-4.389Z" transform="translate(-4.51 -4.721)"/><path d="M211.379,34.127a2.089,2.089,0,0,1,1.979-1.211c1.367,0,2.039.743,2.039,2.147v4.221h-.756V35.11c0-1.091-.455-1.559-1.463-1.559-1.163,0-1.679.864-1.679,2.243v3.49h-.755V35.1c0-1-.432-1.548-1.3-1.548-1.271,0-1.847.948-1.847,2.279v3.454h-.755V33.1h.695v1.043h.036a2.123,2.123,0,0,1,2.027-1.223A1.719,1.719,0,0,1,211.379,34.127Z" transform="translate(-4.51 -4.721)"/><path d="M221.555,34.907v3.286a.4.4,0,0,0,.444.455.6.6,0,0,0,.24-.047v.635a2.172,2.172,0,0,1-.48.048c-.66,0-.9-.288-.9-1.043v-.036h-.024a2.358,2.358,0,0,1-2.254,1.259c-1.224,0-2.075-.624-2.075-1.811a1.5,1.5,0,0,1,.612-1.331,4.73,4.73,0,0,1,2.4-.624c.888-.1,1.283-.132,1.283-.875,0-.936-.6-1.272-1.619-1.272s-1.618.492-1.655,1.44h-.755c.084-1.368.971-2.075,2.518-2.075C220.919,32.916,221.555,33.683,221.555,34.907Zm-.78,1c-.095.168-.371.24-.779.3-.372.06-1.14.156-1.511.252-.612.156-1.224.407-1.224,1.151a1.283,1.283,0,0,0,1.38,1.224A1.99,1.99,0,0,0,220.8,36.9V35.9Z" transform="translate(-4.51 -4.721)"/><path d="M227.531,33.1v.539l-4.09,5.013H227.7v.636H222.53v-.612l4.042-4.941h-3.766V33.1Z" transform="translate(-4.51 -4.721)"/><path d="M234.167,36.19c0,1.811-1.067,3.274-2.927,3.274a2.97,2.97,0,0,1-2.926-3.274,2.945,2.945,0,1,1,5.853,0Zm-2.927,2.639a2.369,2.369,0,0,0,2.171-2.639,2.368,2.368,0,0,0-2.182-2.639c-1.392,0-2.159,1.283-2.159,2.639S229.837,38.829,231.24,38.829Z" transform="translate(-4.51 -4.721)"/><path d="M240.311,35.267v4.017h-.756V35.41c0-1.211-.479-1.859-1.571-1.859a1.971,1.971,0,0,0-1.942,2.183v3.55h-.756V33.1h.756v1.067h.023a2.1,2.1,0,0,1,1.991-1.247C239.639,32.916,240.311,33.683,240.311,35.267Z" transform="translate(-4.51 -4.721)"/><path d="M251.182,33.2h-.815a2.115,2.115,0,0,0-2.351-1.967c-1.163,0-2.135.479-2.135,1.7a1.332,1.332,0,0,0,1.2,1.284l2.086.516c1.655.407,2.315,1.139,2.315,2.279,0,.839-.456,2.446-3.274,2.446-2.111,0-3.418-.971-3.418-2.782v-.216h.815v.072c0,1.571,1.068,2.231,2.77,2.231.972,0,2.292-.516,2.292-1.74,0-.779-.6-1.259-1.716-1.535L247,35.015c-1.272-.312-1.932-.912-1.932-2.063,0-.972.672-2.411,2.939-2.411C249.815,30.541,251.182,31.513,251.182,33.2Z" transform="translate(-4.51 -4.721)"/><path d="M257.759,32.952a1.814,1.814,0,0,1-1.415,1.859v.023a1.96,1.96,0,0,1,1.727,2.076,2.9,2.9,0,0,1-5.769-.073c0-.024,0-.084.012-.227h.755v.156a2.132,2.132,0,0,0,4.246.2c0-1.1-.779-1.775-2.027-1.775h-.623v-.635h.611A1.568,1.568,0,0,0,257,33.036c0-1.032-.743-1.583-1.823-1.583a1.836,1.836,0,0,0-1.919,2.074v.048h-.755a2.569,2.569,0,0,1,2.662-2.758C256.487,30.817,257.759,31.488,257.759,32.952Z" transform="translate(-4.51 -4.721)"/><polygon points="158.83 159.441 145.03 176.841 133.63 166.941 125.83 173.541 125.53 173.241 125.53 180.841 170.53 180.841 170.53 166.141 158.83 159.441" style="fill:#00188f"/><polygon points="157.93 138.841 141.73 157.741 129.13 154.341 125.53 159.441 125.53 169.241 133.63 162.241 143.83 171.141 157.43 154.341 170.53 162.041 170.53 141.741 157.93 138.841" style="fill:#00188f"/><polygon points="123.53 182.841 123.53 136.841 121.53 136.841 121.53 182.841 121.53 183.141 121.53 184.841 170.53 184.841 170.53 182.841 123.53 182.841" style="fill:#00188f"/><rect id="_Slice_" data-name="&lt;Slice&gt;" x="121.53" y="136.841" width="49" height="48" style="fill:none"/><g id="Internet_2" data-name="Internet 2"><g id="_グループ_" data-name="&lt;グループ&gt;"><path d="M77.412,148.127a9.6,9.6,0,0,1,5.312,8.814c0,4.507-2.8,8.313-6.62,9.317l-1.307.3H29.217c-5.312,0-9.62-4.811-9.62-10.625s4.308-10.624,9.62-10.624a3.9,3.9,0,0,1,1.1.105,8.366,8.366,0,0,1,7.32-4.413,6.927,6.927,0,0,1,2.405.4v-.4c0-6.912,5.009-12.422,11.22-12.422A11.311,11.311,0,0,1,61.382,135.8a9.979,9.979,0,0,1,5.312-1.6c6.013,0,10.823,5.417,10.823,12.026A6.315,6.315,0,0,1,77.412,148.127Z" transform="translate(-4.51 -4.721)" style="fill:#00188f"/></g></g><path d="M11.3,89.721v.7H8.313v7.867H7.5V90.417H4.51v-.7Z" transform="translate(-4.51 -4.721)"/><path d="M12.706,89.721v3.442h.023a2.1,2.1,0,0,1,1.991-1.247c1.583,0,2.255.767,2.255,2.362v4.006h-.756V94.4c0-1.235-.515-1.847-1.571-1.847a1.973,1.973,0,0,0-1.942,2.183v3.55H11.95V89.721Z" transform="translate(-4.51 -4.721)"/><path d="M23.947,95.19c0,1.811-1.068,3.274-2.927,3.274a3.295,3.295,0,1,1,2.927-3.274ZM21.02,97.829a2.688,2.688,0,0,0-.012-5.278c-1.391,0-2.158,1.283-2.158,2.639S19.617,97.829,21.02,97.829Z" transform="translate(-4.51 -4.721)"/><path d="M29.611,93.127a2.089,2.089,0,0,1,1.979-1.211c1.367,0,2.039.743,2.039,2.147v4.221h-.756V94.11c0-1.091-.456-1.559-1.463-1.559-1.163,0-1.679.864-1.679,2.243v3.49h-.755V94.1c0-1-.433-1.548-1.3-1.548-1.271,0-1.847.948-1.847,2.279v3.454h-.755V92.1h.7v1.043h.036a2.123,2.123,0,0,1,2.027-1.223A1.718,1.718,0,0,1,29.611,93.127Z" transform="translate(-4.51 -4.721)"/><path d="M39.535,93.907H38.78c-.025-.852-.66-1.356-1.619-1.356-.7,0-1.464.276-1.464,1.068,0,.527.468.863,1.391,1.067l.792.18c.672.144,1.871.456,1.871,1.739,0,1.343-1.331,1.859-2.482,1.859a2.233,2.233,0,0,1-2.543-2.183h.755A1.628,1.628,0,0,0,37.3,97.829c.792,0,1.692-.36,1.692-1.164,0-.636-.468-.947-1.464-1.163l-.8-.18c-1.211-.276-1.787-.744-1.787-1.667,0-1.259,1.235-1.739,2.327-1.739A2.026,2.026,0,0,1,39.535,93.907Z" transform="translate(-4.51 -4.721)"/><path d="M46.387,95.19c0,1.811-1.068,3.274-2.927,3.274a3.295,3.295,0,1,1,2.927-3.274ZM43.46,97.829a2.688,2.688,0,0,0-.012-5.278c-1.391,0-2.158,1.283-2.158,2.639S42.057,97.829,43.46,97.829Z" transform="translate(-4.51 -4.721)"/><path d="M52.531,94.267v4.017h-.756V94.41c0-1.211-.48-1.859-1.571-1.859a1.972,1.972,0,0,0-1.943,2.183v3.55h-.756V92.1h.756v1.067h.024a2.1,2.1,0,0,1,1.991-1.247C51.859,91.916,52.531,92.683,52.531,94.267Z" transform="translate(-4.51 -4.721)"/><path d="M61.339,89.721c1.535,0,2.627.756,2.627,2.231A2.058,2.058,0,0,1,62.3,94.134v.024c1.344.18,1.475,1.248,1.512,2.147a4.083,4.083,0,0,0,.383,1.979h-.9a4.447,4.447,0,0,1-.24-1.571,3.1,3.1,0,0,0-.468-1.751,1.349,1.349,0,0,0-1.115-.48H58.257v3.8h-.816V89.721Zm-.024,4.066A1.7,1.7,0,0,0,63.15,92.12a1.6,1.6,0,0,0-1.835-1.7H58.257v3.37Z" transform="translate(-4.51 -4.721)"/><path d="M70.506,95.214v.18H65.745a2.183,2.183,0,0,0,2.039,2.435,1.877,1.877,0,0,0,1.943-1.584h.755a2.52,2.52,0,0,1-2.7,2.219c-1.859,0-2.8-1.379-2.8-3.274,0-1.691.876-3.274,2.8-3.274C69.523,91.916,70.506,93.3,70.506,95.214Zm-.756-.456a2.082,2.082,0,0,0-1.978-2.207c-1.08,0-1.859.864-2.027,2.207Z" transform="translate(-4.51 -4.721)"/><path d="M72.273,92.1v3.873c0,1.08.3,1.86,1.643,1.86,1.3,0,1.871-1.2,1.871-2.495V92.1h.755v6.188h-.7V97.169h-.024a2.3,2.3,0,0,1-2.135,1.3c-1.559,0-2.171-.887-2.171-2.351V92.1Z" transform="translate(-4.51 -4.721)"/><path d="M79.172,90.237V92.1h1.26v.635h-1.26v4.222c0,.54.156.768.7.768.132,0,.348-.013.564-.036v.647c-.288.012-.432.024-.672.024-1,0-1.343-.335-1.343-1.343V92.731h-1.08V92.1h1.08V90.237Z" transform="translate(-4.51 -4.721)"/><path d="M86.73,95.214v.18H81.969a2.183,2.183,0,0,0,2.038,2.435,1.876,1.876,0,0,0,1.943-1.584h.756a2.52,2.52,0,0,1-2.7,2.219c-1.859,0-2.794-1.379-2.794-3.274,0-1.691.875-3.274,2.794-3.274C85.747,91.916,86.73,93.3,86.73,95.214Zm-.756-.456A2.082,2.082,0,0,0,84,92.551c-1.08,0-1.86.864-2.027,2.207Z" transform="translate(-4.51 -4.721)"/><path d="M90.811,92.767h-.12A2.123,2.123,0,0,0,88.508,95v3.286h-.755V92.1h.695v1.451h.025a2.256,2.256,0,0,1,2.182-1.535h.156Z" transform="translate(-4.51 -4.721)"/><path d="M95.994,93.907h-.755c-.025-.852-.66-1.356-1.619-1.356-.7,0-1.464.276-1.464,1.068,0,.527.468.863,1.391,1.067l.792.18c.672.144,1.871.456,1.871,1.739,0,1.343-1.331,1.859-2.482,1.859a2.233,2.233,0,0,1-2.543-2.183h.755a1.628,1.628,0,0,0,1.823,1.548c.792,0,1.692-.36,1.692-1.164,0-.636-.468-.947-1.464-1.163l-.8-.18c-1.211-.276-1.787-.744-1.787-1.667,0-1.259,1.235-1.739,2.327-1.739A2.026,2.026,0,0,1,95.994,93.907Z" transform="translate(-4.51 -4.721)"/><path d="M7.682,103.721c2.53,0,4.078,1.247,4.078,4.281,0,2.819-1.331,4.282-4.09,4.282H4.863v-8.563Zm-.276,7.867c2.363,0,3.538-.911,3.538-3.586,0-2.614-1.091-3.585-3.562-3.585h-1.7v7.171Z" transform="translate(-4.51 -4.721)"/><path d="M17.653,107.907v3.286a.4.4,0,0,0,.444.455.6.6,0,0,0,.239-.047v.635a2.166,2.166,0,0,1-.48.048c-.659,0-.9-.288-.9-1.043v-.036h-.024a2.359,2.359,0,0,1-2.255,1.259c-1.223,0-2.074-.624-2.074-1.811a1.5,1.5,0,0,1,.611-1.331,4.735,4.735,0,0,1,2.4-.624c.887-.1,1.283-.132,1.283-.875,0-.936-.6-1.272-1.619-1.272s-1.619.492-1.655,1.44h-.756c.084-1.368.972-2.075,2.519-2.075C17.017,105.916,17.653,106.683,17.653,107.907Zm-.78,1c-.1.168-.372.24-.779.3-.372.06-1.14.156-1.511.252-.612.156-1.224.407-1.224,1.151a1.283,1.283,0,0,0,1.379,1.224A1.99,1.99,0,0,0,16.9,109.9v-1Z" transform="translate(-4.51 -4.721)"/><path d="M20.367,104.237V106.1h1.259v.635H20.367v4.222c0,.54.155.768.7.768.131,0,.347-.013.563-.036v.647c-.288.012-.432.024-.671.024-1,0-1.344-.335-1.344-1.343v-4.282H18.532V106.1h1.079v-1.859Z" transform="translate(-4.51 -4.721)"/><path d="M27.433,107.907v3.286a.4.4,0,0,0,.443.455.6.6,0,0,0,.24-.047v.635a2.172,2.172,0,0,1-.48.048c-.659,0-.9-.288-.9-1.043v-.036h-.024a2.36,2.36,0,0,1-2.255,1.259c-1.223,0-2.075-.624-2.075-1.811A1.5,1.5,0,0,1,23,109.322a4.735,4.735,0,0,1,2.4-.624c.887-.1,1.283-.132,1.283-.875,0-.936-.6-1.272-1.619-1.272s-1.62.492-1.655,1.44h-.756c.084-1.368.972-2.075,2.519-2.075C26.8,105.916,27.433,106.683,27.433,107.907Zm-.78,1c-.1.168-.372.24-.779.3-.373.06-1.14.156-1.512.252-.612.156-1.223.407-1.223,1.151a1.283,1.283,0,0,0,1.379,1.224,1.991,1.991,0,0,0,2.159-1.932v-1Z" transform="translate(-4.51 -4.721)"/><path d="M35.052,106.2h-.816a2.114,2.114,0,0,0-2.35-1.967c-1.164,0-2.136.479-2.136,1.7a1.332,1.332,0,0,0,1.2,1.284l2.087.516c1.655.407,2.315,1.139,2.315,2.279,0,.839-.456,2.446-3.274,2.446-2.111,0-3.419-.971-3.419-2.782v-.216h.816v.072c0,1.571,1.067,2.231,2.77,2.231.972,0,2.291-.516,2.291-1.74,0-.779-.6-1.259-1.715-1.535l-1.955-.479c-1.271-.312-1.931-.912-1.931-2.063,0-.972.672-2.411,2.939-2.411C33.685,103.541,35.052,104.513,35.052,106.2Z" transform="translate(-4.51 -4.721)"/><path d="M41.628,108.039h-.755a1.675,1.675,0,0,0-1.751-1.488,2.689,2.689,0,0,0,0,5.278,1.859,1.859,0,0,0,1.8-1.764h.755a2.5,2.5,0,0,1-2.554,2.4,3.295,3.295,0,0,1,0-6.548A2.3,2.3,0,0,1,41.628,108.039Z" transform="translate(-4.51 -4.721)"/><path d="M48.276,109.19c0,1.811-1.067,3.274-2.926,3.274a3.295,3.295,0,1,1,2.926-3.274Zm-2.926,2.639a2.688,2.688,0,0,0-.012-5.278c-1.391,0-2.159,1.283-2.159,2.639S43.947,111.829,45.35,111.829Z" transform="translate(-4.51 -4.721)"/><path d="M49.407,114.575V106.1h.7v1.175h.024a2.284,2.284,0,0,1,2.206-1.355c1.872,0,2.783,1.5,2.783,3.274,0,1.907-1.019,3.274-2.77,3.274a2.2,2.2,0,0,1-2.159-1.355h-.024v3.466Zm.756-5.385c0,1.319.6,2.639,2.17,2.639,1.428,0,2.027-1.344,2.027-2.639,0-1.272-.575-2.639-2.039-2.639C50.918,106.551,50.163,107.439,50.163,109.19Z" transform="translate(-4.51 -4.721)"/><path d="M61.5,109.214v.18H56.739a2.183,2.183,0,0,0,2.038,2.435,1.876,1.876,0,0,0,1.943-1.584h.756a2.52,2.52,0,0,1-2.7,2.219c-1.859,0-2.794-1.379-2.794-3.274,0-1.691.875-3.274,2.794-3.274C60.517,105.916,61.5,107.3,61.5,109.214Zm-.756-.456a2.082,2.082,0,0,0-1.978-2.207c-1.08,0-1.86.864-2.027,2.207Z" transform="translate(-4.51 -4.721)"/><path d="M71.963,106.2h-.815a2.115,2.115,0,0,0-2.351-1.967c-1.163,0-2.135.479-2.135,1.7a1.332,1.332,0,0,0,1.2,1.284l2.087.516c1.655.407,2.314,1.139,2.314,2.279,0,.839-.455,2.446-3.274,2.446-2.111,0-3.418-.971-3.418-2.782v-.216h.816v.072c0,1.571,1.067,2.231,2.77,2.231.971,0,2.291-.516,2.291-1.74,0-.779-.6-1.259-1.716-1.535l-1.954-.479c-1.272-.312-1.931-.912-1.931-2.063,0-.972.672-2.411,2.938-2.411C70.6,103.541,71.963,104.513,71.963,106.2Z" transform="translate(-4.51 -4.721)"/><path d="M78.624,109.214v.18H73.863a2.183,2.183,0,0,0,2.038,2.435,1.876,1.876,0,0,0,1.943-1.584H78.6a2.52,2.52,0,0,1-2.7,2.219c-1.859,0-2.794-1.379-2.794-3.274,0-1.691.875-3.274,2.794-3.274C77.641,105.916,78.624,107.3,78.624,109.214Zm-.756-.456a2.082,2.082,0,0,0-1.978-2.207c-1.08,0-1.86.864-2.027,2.207Z" transform="translate(-4.51 -4.721)"/><path d="M80.415,103.721v8.563h-.756v-8.563Z" transform="translate(-4.51 -4.721)"/><path d="M87.072,109.214v.18H82.311a2.184,2.184,0,0,0,2.039,2.435,1.876,1.876,0,0,0,1.942-1.584h.756a2.52,2.52,0,0,1-2.7,2.219c-1.859,0-2.795-1.379-2.795-3.274,0-1.691.876-3.274,2.795-3.274C86.089,105.916,87.072,107.3,87.072,109.214Zm-.756-.456a2.082,2.082,0,0,0-1.978-2.207c-1.08,0-1.859.864-2.027,2.207Z" transform="translate(-4.51 -4.721)"/><path d="M93.216,108.039h-.755a1.675,1.675,0,0,0-1.752-1.488,2.69,2.69,0,0,0,0,5.278,1.859,1.859,0,0,0,1.8-1.764h.755a2.5,2.5,0,0,1-2.555,2.4,3.295,3.295,0,0,1,0-6.548A2.3,2.3,0,0,1,93.216,108.039Z" transform="translate(-4.51 -4.721)"/><path d="M95.522,104.237V106.1h1.26v.635h-1.26v4.222c0,.54.156.768.7.768.132,0,.348-.013.564-.036v.647c-.288.012-.432.024-.672.024-1,0-1.343-.335-1.343-1.343v-4.282H93.688V106.1h1.079v-1.859Z" transform="translate(-4.51 -4.721)"/><path d="M477.194,111.961H451.109a5.83,5.83,0,0,0-5.569,5.99v32.621a5.83,5.83,0,0,0,5.569,5.99h28.862a5.83,5.83,0,0,0,5.569-5.99V120.788Zm4.964,38.466A2.218,2.218,0,0,1,480,152.748H451.208a2.2,2.2,0,0,1-2.116-2.271V117.714a2.2,2.2,0,0,1,2.116-2.271H475.5v7.3h6.641v27.689Z" transform="translate(-4.51 -4.721)" style="fill:#2a3282"/><path d="M457.586,127.367v2.948c0,1.708-.664,2.57-1.853,2.57v2.57c1.328,0,1.853.862,1.853,2.421v3.23a5.148,5.148,0,0,0,1.082,3.618c.815.875,2.147,1.3,4.169,1.3v-2.535a2.089,2.089,0,0,1-1.6-.568,3.153,3.153,0,0,1-.4-1.872v-2.723c0-2.156-.67-3.593-1.868-4.161h0c1.338-.568,1.868-1.871,1.868-4.01v-2.874c0-1.57.669-2.289,2.007-2.289v-2.535c-2.022,0-3.37.438-4.169,1.3C457.994,124.338,457.586,125.634,457.586,127.367Z" transform="translate(-4.51 -4.721)" style="fill:#2a3282"/><path d="M472.258,130.315v-3.1a5.794,5.794,0,0,0-1.081-3.753c-.815-.875-2.148-1.3-4.17-1.3v2.52c1.339,0,2.008.718,2.008,2.289V129.7c0,2.289.669,3.593,1.868,4.161h0c-1.339.568-1.868,1.871-1.868,4.01v2.874a3.476,3.476,0,0,1-.4,1.871c-.264.435-.809.568-1.6.568v2.536c2.022,0,3.37-.437,4.17-1.3a5.538,5.538,0,0,0,1.081-3.752v-3.1c0-1.707.664-2.57,1.853-2.57v-2.42C472.922,132.885,472.258,132.023,472.258,130.315Z" transform="translate(-4.51 -4.721)" style="fill:#2a3282"/><path d="M8.885,324.721l4.99,7.244H13.9v-7.244h.816v8.563H13.8L8.813,326.04H8.789v7.244H7.974v-8.563Z" transform="translate(-4.51 -4.721)"/><path d="M17.057,324.721v1.212H16.3v-1.212Zm0,2.375v6.188H16.3V327.1Z" transform="translate(-4.51 -4.721)"/><path d="M19.265,324.721v5.373l3.43-3H23.7l-2.639,2.29,2.819,3.9h-.948l-2.446-3.37-1.224,1.02v2.35H18.51v-8.563Z" transform="translate(-4.51 -4.721)"/><path d="M25.265,324.721v5.373l3.43-3H29.7l-2.639,2.29,2.819,3.9h-.948l-2.446-3.37-1.224,1.02v2.35H24.51v-8.563Z" transform="translate(-4.51 -4.721)"/><path d="M35.715,330.214v.18H30.954a2.183,2.183,0,0,0,2.038,2.435,1.877,1.877,0,0,0,1.943-1.584h.756a2.52,2.52,0,0,1-2.7,2.219c-1.859,0-2.794-1.379-2.794-3.274,0-1.691.875-3.275,2.794-3.275C34.731,326.915,35.715,328.3,35.715,330.214Zm-.756-.455a2.082,2.082,0,0,0-1.979-2.207c-1.079,0-1.859.863-2.026,2.207Z" transform="translate(-4.51 -4.721)"/><path d="M37.505,324.721v1.212H36.75v-1.212Zm0,2.375v6.188H36.75V327.1Z" transform="translate(-4.51 -4.721)"/><path d="M50.054,329a4.61,4.61,0,0,1-1.3,3.393l1.223.936-.407.5-1.331-1.007a3.715,3.715,0,0,1-2.219.635c-2.675,0-4.042-2.074-4.042-4.461,0-2.436,1.415-4.462,4.042-4.462S50.054,326.58,50.054,329Zm-4.03,3.766a2.95,2.95,0,0,0,1.583-.42l-1.128-.852.42-.516,1.247.948A3.963,3.963,0,0,0,49.238,329c0-1.907-.971-3.766-3.226-3.766-2.159,0-3.215,1.775-3.215,3.766C42.8,330.9,43.769,332.769,46.024,332.769Z" transform="translate(-4.51 -4.721)"/><path d="M51.93,327.1v3.874c0,1.079.3,1.859,1.643,1.859,1.3,0,1.87-1.2,1.87-2.5V327.1H56.2v6.188h-.7v-1.115h-.024a2.3,2.3,0,0,1-2.134,1.3c-1.559,0-2.171-.887-2.171-2.351V327.1Z" transform="translate(-4.51 -4.721)"/><path d="M58.4,324.721v1.212h-.755v-1.212Zm0,2.375v6.188h-.755V327.1Z" transform="translate(-4.51 -4.721)"/><path d="M64.971,329.038h-.756a1.675,1.675,0,0,0-1.751-1.486,2.689,2.689,0,0,0,0,5.277,1.858,1.858,0,0,0,1.8-1.764h.756a2.5,2.5,0,0,1-2.555,2.4,3.3,3.3,0,0,1,0-6.549A2.3,2.3,0,0,1,64.971,329.038Z" transform="translate(-4.51 -4.721)"/><path d="M66.833,324.721v5.373l3.43-3h1.008l-2.639,2.29,2.819,3.9H70.5l-2.446-3.37-1.224,1.02v2.35h-.755v-8.563Z" transform="translate(-4.51 -4.721)"/><path d="M76.457,324.721l4.989,7.244h.024v-7.244h.816v8.563h-.912l-4.989-7.244h-.024v7.244h-.816v-8.563Z" transform="translate(-4.51 -4.721)"/><path d="M89.066,330.214v.18H84.305a2.184,2.184,0,0,0,2.039,2.435,1.878,1.878,0,0,0,1.943-1.584h.755a2.519,2.519,0,0,1-2.7,2.219c-1.859,0-2.795-1.379-2.795-3.274,0-1.691.876-3.275,2.795-3.275C88.083,326.915,89.066,328.3,89.066,330.214Zm-.755-.455a2.082,2.082,0,0,0-1.979-2.207c-1.08,0-1.859.863-2.027,2.207Z" transform="translate(-4.51 -4.721)"/><path d="M90.269,327.1l1.583,5.3h.024l1.511-5.3h.852l1.511,5.3h.024l1.583-5.3h.8l-1.991,6.188h-.828l-1.523-5.2H93.8l-1.511,5.2h-.827L89.466,327.1Z" transform="translate(-4.51 -4.721)"/><path d="M103.443,328.907h-.755c-.025-.851-.66-1.355-1.62-1.355-.695,0-1.463.275-1.463,1.066,0,.528.468.864,1.391,1.069l.792.179c.671.144,1.871.455,1.871,1.738,0,1.344-1.331,1.86-2.483,1.86a2.234,2.234,0,0,1-2.543-2.183h.756a1.628,1.628,0,0,0,1.823,1.548c.792,0,1.691-.36,1.691-1.164,0-.636-.467-.947-1.463-1.163l-.8-.181c-1.211-.275-1.786-.743-1.786-1.666,0-1.259,1.235-1.74,2.326-1.74A2.028,2.028,0,0,1,103.443,328.907Z" transform="translate(-4.51 -4.721)"/><g id="group1072-2162"><g id="shape1073-2163"><rect x="135.003" y="253.338" width="20.116" height="3.725" style="fill:#2a3282"/></g><g id="shape1074-2165"><rect x="135.003" y="259.894" width="20.116" height="3.725" style="fill:#2a3282"/></g><g id="shape1075-2167"><rect x="135.003" y="266.45" width="20.116" height="3.725" style="fill:#2a3282"/></g></g><g id="shape1076-2169"><path d="M162.323,242.562H134.045a6,6,0,0,0-6,6v32.991a6.006,6.006,0,0,0,6,6H165.4a6.006,6.006,0,0,0,6.005-6V251.514Zm3.043,41.572h-31.3a2.333,2.333,0,0,1-2.306-2.435V248.6a2.31,2.31,0,0,1,2.31-2.309h26.3v7.45h7.3v28.088A2.31,2.31,0,0,1,165.366,284.134Z" transform="translate(-4.51 -4.721)" style="fill:#2a3282"/></g><path d="M116.842,118.721v.7h-2.987v7.867h-.815v-7.867h-2.986v-.7Z" transform="translate(-4.51 -4.721)"/><path d="M118.273,118.721v1.211h-.756v-1.211Zm0,2.375v6.188h-.756V121.1Z" transform="translate(-4.51 -4.721)"/><path d="M124.847,123.039h-.756a1.675,1.675,0,0,0-1.751-1.488,2.689,2.689,0,0,0,0,5.278,1.858,1.858,0,0,0,1.8-1.764h.756a2.5,2.5,0,0,1-2.555,2.4,3.295,3.295,0,0,1,0-6.548A2.3,2.3,0,0,1,124.847,123.039Z" transform="translate(-4.51 -4.721)"/><path d="M126.709,118.721v5.373l3.43-3h1.007l-2.638,2.29,2.819,3.9h-.948l-2.446-3.37-1.224,1.02v2.35h-.755v-8.563Z" transform="translate(-4.51 -4.721)"/><path d="M138.252,118.721c2.53,0,4.078,1.247,4.078,4.281,0,2.819-1.332,4.282-4.09,4.282h-2.806v-8.563Zm-.276,7.867c2.363,0,3.538-.911,3.538-3.586,0-2.614-1.091-3.585-3.562-3.585h-1.7v7.171Z" transform="translate(-4.51 -4.721)"/><path d="M148.223,122.907v3.286a.4.4,0,0,0,.444.455.6.6,0,0,0,.24-.047v.635a2.172,2.172,0,0,1-.48.048c-.66,0-.9-.288-.9-1.043v-.036H147.5a2.358,2.358,0,0,1-2.254,1.259c-1.224,0-2.075-.624-2.075-1.811a1.5,1.5,0,0,1,.612-1.331,4.73,4.73,0,0,1,2.4-.624c.888-.1,1.283-.132,1.283-.875,0-.936-.6-1.272-1.619-1.272s-1.619.492-1.655,1.44h-.755c.083-1.368.971-2.075,2.518-2.075C147.587,120.916,148.223,121.683,148.223,122.907Zm-.78,1c-.095.168-.371.24-.779.3-.372.06-1.14.156-1.511.252-.612.156-1.224.407-1.224,1.151a1.283,1.283,0,0,0,1.38,1.224,1.99,1.99,0,0,0,2.158-1.932v-1Z" transform="translate(-4.51 -4.721)"/><path d="M150.937,119.237V121.1H152.2v.635h-1.259v4.222c0,.54.156.768.7.768.132,0,.347-.013.563-.036v.647c-.287.012-.431.024-.671.024-1,0-1.343-.335-1.343-1.343v-4.282H149.1V121.1h1.08v-1.859Z" transform="translate(-4.51 -4.721)"/><path d="M158,122.907v3.286a.4.4,0,0,0,.444.455.608.608,0,0,0,.24-.047v.635a2.178,2.178,0,0,1-.48.048c-.66,0-.9-.288-.9-1.043v-.036h-.024a2.359,2.359,0,0,1-2.255,1.259c-1.223,0-2.074-.624-2.074-1.811a1.5,1.5,0,0,1,.611-1.331,4.739,4.739,0,0,1,2.4-.624c.888-.1,1.283-.132,1.283-.875,0-.936-.6-1.272-1.619-1.272s-1.619.492-1.655,1.44h-.756c.084-1.368.972-2.075,2.519-2.075C157.367,120.916,158,121.683,158,122.907Zm-.78,1c-.1.168-.371.24-.779.3-.372.06-1.14.156-1.511.252-.612.156-1.224.407-1.224,1.151a1.283,1.283,0,0,0,1.379,1.224,1.99,1.99,0,0,0,2.159-1.932v-1Z" transform="translate(-4.51 -4.721)"/><path d="M165.036,118.541a10.835,10.835,0,0,0-1.535,5.817,10.449,10.449,0,0,0,1.535,5.217h-.6a9.955,9.955,0,0,1-1.691-5.481,10.135,10.135,0,0,1,1.691-5.553Z" transform="translate(-4.51 -4.721)"/><path d="M172.965,121.312h-.815a2.6,2.6,0,0,0-2.627-2.075c-2.242,0-3.226,1.859-3.226,3.765,0,1.835.935,3.767,3.226,3.767a2.8,2.8,0,0,0,2.747-2.747h.815a3.483,3.483,0,0,1-3.562,3.442c-2.662,0-4.042-2.063-4.042-4.462,0-2.326,1.32-4.461,4.042-4.461A3.288,3.288,0,0,1,172.965,121.312Z" transform="translate(-4.51 -4.721)"/><path d="M180.3,121.2h-.816a2.114,2.114,0,0,0-2.35-1.967c-1.164,0-2.135.479-2.135,1.7a1.331,1.331,0,0,0,1.2,1.284l2.087.516c1.655.407,2.315,1.139,2.315,2.279,0,.839-.456,2.446-3.274,2.446-2.111,0-3.419-.971-3.419-2.782v-.216h.816v.072c0,1.571,1.068,2.231,2.77,2.231.972,0,2.291-.516,2.291-1.74,0-.779-.6-1.259-1.715-1.535l-1.955-.479c-1.271-.312-1.931-.912-1.931-2.063,0-.972.672-2.411,2.939-2.411C178.931,118.541,180.3,119.513,180.3,121.2Z" transform="translate(-4.51 -4.721)"/><path d="M181.825,118.721l2.783,7.664h.024l2.758-7.664h.864l-3.178,8.551-.013.012h-.935l-3.178-8.563Z" transform="translate(-4.51 -4.721)"/><path d="M188.737,118.541a9.97,9.97,0,0,1,1.691,5.481,10.074,10.074,0,0,1-1.691,5.553h-.6a10.884,10.884,0,0,0,1.535-5.817,10.732,10.732,0,0,0-1.535-5.217Z" transform="translate(-4.51 -4.721)"/><path d="M118.291,296.721v.7H115.3v7.867h-.816v-7.867H111.5v-.7Z" transform="translate(-4.51 -4.721)"/><path d="M124.159,302.214v.18H119.4a2.184,2.184,0,0,0,2.039,2.435,1.878,1.878,0,0,0,1.943-1.584h.756a2.52,2.52,0,0,1-2.7,2.219c-1.859,0-2.794-1.379-2.794-3.274,0-1.691.875-3.275,2.794-3.275C123.175,298.915,124.159,300.3,124.159,302.214Zm-.756-.455a2.082,2.082,0,0,0-1.979-2.207c-1.079,0-1.859.863-2.027,2.207Z" transform="translate(-4.51 -4.721)"/><path d="M125.6,299.1l1.763,2.35,1.727-2.35h.948l-2.231,2.962,2.411,3.226h-.96l-1.943-2.6-1.907,2.6h-.935l2.4-3.215-2.219-2.973Z" transform="translate(-4.51 -4.721)"/><path d="M132.153,297.237V299.1h1.259v.635h-1.259v4.222c0,.54.156.768.7.768.131,0,.347-.013.563-.036v.647c-.287.013-.432.024-.671.024-1,0-1.344-.335-1.344-1.343v-4.282h-1.079V299.1H131.4v-1.859Z" transform="translate(-4.51 -4.721)"/><path d="M140.8,296.721c2.53,0,4.077,1.247,4.077,4.282,0,2.818-1.331,4.281-4.089,4.281h-2.807v-8.563Zm-.276,7.868c2.363,0,3.538-.912,3.538-3.586,0-2.615-1.091-3.586-3.562-3.586h-1.7v7.172Z" transform="translate(-4.51 -4.721)"/><path d="M150.775,300.907v3.285a.4.4,0,0,0,.444.456.617.617,0,0,0,.239-.047v.635a2.163,2.163,0,0,1-.479.048c-.66,0-.9-.288-.9-1.043V304.2h-.024a2.358,2.358,0,0,1-2.255,1.26c-1.223,0-2.074-.623-2.074-1.811a1.508,1.508,0,0,1,.611-1.332,4.753,4.753,0,0,1,2.4-.623c.888-.095,1.283-.132,1.283-.875,0-.935-.6-1.271-1.619-1.271s-1.619.491-1.655,1.439h-.756c.084-1.368.972-2.076,2.519-2.076C150.139,298.915,150.775,299.683,150.775,300.907Zm-.78.994c-.1.168-.371.241-.779.3-.372.06-1.14.156-1.511.252-.612.156-1.224.407-1.224,1.15a1.283,1.283,0,0,0,1.379,1.225,1.99,1.99,0,0,0,2.159-1.932v-1Z" transform="translate(-4.51 -4.721)"/><path d="M153.489,297.237V299.1h1.259v.635h-1.259v4.222c0,.54.156.768.7.768.131,0,.347-.013.563-.036v.647c-.288.013-.432.024-.671.024-1,0-1.344-.335-1.344-1.343v-4.282h-1.079V299.1h1.079v-1.859Z" transform="translate(-4.51 -4.721)"/><path d="M160.555,300.907v3.285a.4.4,0,0,0,.444.456.621.621,0,0,0,.239-.047v.635a2.172,2.172,0,0,1-.48.048c-.659,0-.9-.288-.9-1.043V304.2h-.024a2.359,2.359,0,0,1-2.255,1.26c-1.223,0-2.075-.623-2.075-1.811a1.508,1.508,0,0,1,.612-1.332,4.749,4.749,0,0,1,2.4-.623c.887-.095,1.283-.132,1.283-.875,0-.935-.6-1.271-1.619-1.271s-1.619.491-1.655,1.439h-.756c.084-1.368.972-2.076,2.519-2.076C159.919,298.915,160.555,299.683,160.555,300.907Zm-.78.994c-.1.168-.372.241-.779.3-.372.06-1.14.156-1.512.252-.611.156-1.223.407-1.223,1.15a1.283,1.283,0,0,0,1.379,1.225A1.991,1.991,0,0,0,159.8,302.9v-1Z" transform="translate(-4.51 -4.721)"/><path d="M167.588,296.541a10.837,10.837,0,0,0-1.535,5.817,10.449,10.449,0,0,0,1.535,5.217h-.6a9.965,9.965,0,0,1-1.691-5.481,10.143,10.143,0,0,1,1.691-5.553Z" transform="translate(-4.51 -4.721)"/><path d="M175.517,299.312H174.7a2.6,2.6,0,0,0-2.627-2.075c-2.242,0-3.226,1.859-3.226,3.766,0,1.834.935,3.766,3.226,3.766a2.8,2.8,0,0,0,2.747-2.747h.815a3.484,3.484,0,0,1-3.562,3.442c-2.662,0-4.042-2.063-4.042-4.461,0-2.327,1.32-4.462,4.042-4.462A3.29,3.29,0,0,1,175.517,299.312Z" transform="translate(-4.51 -4.721)"/><path d="M182.85,299.2h-.816a2.114,2.114,0,0,0-2.35-1.967c-1.164,0-2.136.479-2.136,1.7a1.334,1.334,0,0,0,1.2,1.285l2.087.515c1.655.407,2.314,1.139,2.314,2.279,0,.838-.455,2.446-3.274,2.446-2.11,0-3.418-.971-3.418-2.782v-.216h.815v.072c0,1.57,1.068,2.231,2.771,2.231.972,0,2.291-.516,2.291-1.74,0-.779-.6-1.258-1.715-1.535l-1.955-.479c-1.271-.313-1.931-.912-1.931-2.063,0-.973.672-2.411,2.938-2.411C181.482,296.541,182.85,297.513,182.85,299.2Z" transform="translate(-4.51 -4.721)"/><path d="M184.377,296.721l2.783,7.664h.024l2.758-7.664h.864l-3.179,8.551-.012.012h-.935l-3.179-8.563Z" transform="translate(-4.51 -4.721)"/><path d="M191.289,296.541a9.97,9.97,0,0,1,1.691,5.481,10.074,10.074,0,0,1-1.691,5.553h-.6a10.883,10.883,0,0,0,1.535-5.816,10.73,10.73,0,0,0-1.535-5.218Z" transform="translate(-4.51 -4.721)"/><polyline points="46.53 170.143 46.53 207.841 216.53 207.841 216.53 105.876" style="fill:none;stroke:#4d4d4d;stroke-miterlimit:10"/><path d="M221.04,104.562a30.245,30.245,0,0,0,4.756,8.547l-4.756-1.72-4.755,1.72A30.217,30.217,0,0,0,221.04,104.562Z" transform="translate(-4.51 -4.721)" style="fill:#4d4d4d"/><polyline points="46.53 257.341 46.53 219.22 230.53 219.22 230.53 105.876" style="fill:none;stroke:#4d4d4d;stroke-miterlimit:10"/><path d="M235.04,104.562a30.245,30.245,0,0,0,4.756,8.547l-4.756-1.72-4.755,1.72A30.217,30.217,0,0,0,235.04,104.562Z" transform="translate(-4.51 -4.721)" style="fill:#4d4d4d"/><path d="M421.186,170.72l3.358,8.564h-.876l-1.043-2.663h-3.9l-1.032,2.663h-.876l3.454-8.564Zm-2.207,5.205h3.37l-1.655-4.389Z" transform="translate(-4.51 -4.721)"/><path d="M425.952,170.72v8.564H425.2V170.72Z" transform="translate(-4.51 -4.721)"/><path d="M428.172,170.72v1.212h-.756V170.72Zm0,2.375v6.189h-.756V173.1Z" transform="translate(-4.51 -4.721)"/><path d="M434.073,174.163h.025V173.1h.755V178.8c0,1.955-.864,2.95-2.734,2.95-1.38,0-2.5-.659-2.579-1.871h.755c.132.78.8,1.236,1.811,1.236,1.416,0,1.992-.84,1.992-2.315v-.864h-.025a2.117,2.117,0,0,1-1.967,1.272c-1.858,0-2.794-1.259-2.794-3.178a2.828,2.828,0,0,1,2.794-3.119A2.156,2.156,0,0,1,434.073,174.163Zm-1.967,4.413c1.236,0,1.992-1.116,1.992-2.458,0-1.26-.576-2.567-2-2.567-1.284,0-2.027,1.091-2.027,2.567C430.068,177.377,430.715,178.576,432.106,178.576Z" transform="translate(-4.51 -4.721)"/><path d="M441.309,175.266v4.018h-.756V175.41c0-1.211-.479-1.859-1.571-1.859a1.97,1.97,0,0,0-1.942,2.183v3.55h-.756V173.1h.756v1.068h.023a2.1,2.1,0,0,1,1.991-1.248C440.637,172.915,441.309,173.683,441.309,175.266Z" transform="translate(-4.51 -4.721)"/><path d="M447.273,174.126a2.09,2.09,0,0,1,1.979-1.211c1.367,0,2.039.744,2.039,2.147v4.222h-.756V175.11c0-1.091-.455-1.559-1.463-1.559-1.163,0-1.679.864-1.679,2.242v3.491h-.755V175.1c0-1-.432-1.547-1.3-1.547-1.271,0-1.847.948-1.847,2.279v3.454h-.755V173.1h.695v1.044h.036a2.122,2.122,0,0,1,2.027-1.224A1.719,1.719,0,0,1,447.273,174.126Z" transform="translate(-4.51 -4.721)"/><path d="M457.941,176.213v.18H453.18a2.183,2.183,0,0,0,2.038,2.435,1.877,1.877,0,0,0,1.943-1.583h.756a2.52,2.52,0,0,1-2.7,2.218c-1.859,0-2.794-1.379-2.794-3.274,0-1.69.875-3.274,2.794-3.274C456.958,172.915,457.941,174.294,457.941,176.213Zm-.756-.455a2.082,2.082,0,0,0-1.978-2.207c-1.08,0-1.86.864-2.027,2.207Z" transform="translate(-4.51 -4.721)"/><path d="M463.977,175.266v4.018h-.756V175.41c0-1.211-.479-1.859-1.571-1.859a1.97,1.97,0,0,0-1.942,2.183v3.55h-.756V173.1h.756v1.068h.023a2.1,2.1,0,0,1,1.991-1.248C463.305,172.915,463.977,173.683,463.977,175.266Z" transform="translate(-4.51 -4.721)"/><path d="M466.607,171.236V173.1h1.259v.636h-1.259v4.222c0,.539.156.767.7.767a5.637,5.637,0,0,0,.563-.036v.648c-.287.012-.431.023-.671.023-1,0-1.343-.335-1.343-1.343v-4.281h-1.08V173.1h1.08v-1.859Z" transform="translate(-4.51 -4.721)"/><path d="M474.478,170.541a10.831,10.831,0,0,0-1.535,5.816,10.449,10.449,0,0,0,1.535,5.217h-.6a9.959,9.959,0,0,1-1.69-5.481,10.141,10.141,0,0,1,1.69-5.552Z" transform="translate(-4.51 -4.721)"/><path d="M479.6,170.72v6.2c0,1.739-.684,2.542-2.483,2.542-1.619,0-2.4-.947-2.4-2.9v-.024h.815c0,1.343.3,2.231,1.655,2.231,1.164,0,1.6-.528,1.6-2.159V170.72Z" transform="translate(-4.51 -4.721)"/><path d="M487.292,173.2h-.815a2.115,2.115,0,0,0-2.351-1.967c-1.164,0-2.135.48-2.135,1.7a1.331,1.331,0,0,0,1.2,1.284l2.087.515c1.655.408,2.315,1.139,2.315,2.279,0,.839-.456,2.446-3.274,2.446-2.111,0-3.419-.971-3.419-2.782v-.216h.816v.072c0,1.571,1.068,2.231,2.77,2.231.972,0,2.291-.516,2.291-1.739,0-.779-.6-1.259-1.715-1.535l-1.955-.48c-1.271-.312-1.931-.911-1.931-2.063,0-.972.672-2.41,2.939-2.41C485.925,170.541,487.292,171.512,487.292,173.2Z" transform="translate(-4.51 -4.721)"/><path d="M496.507,175c0,2.315-1.319,4.461-4.029,4.461-2.675,0-4.042-2.074-4.042-4.461,0-2.363,1.355-4.461,4.042-4.461C495.14,170.541,496.507,172.627,496.507,175Zm-4.029,3.766c2.23,0,3.213-1.871,3.213-3.766,0-1.859-.947-3.766-3.226-3.766-2.158,0-3.214,1.775-3.214,3.766C489.251,176.885,490.223,178.768,492.478,178.768Z" transform="translate(-4.51 -4.721)"/><path d="M498.683,170.72l4.989,7.244h.024V170.72h.816v8.564H503.6l-4.989-7.244h-.024v7.244h-.816V170.72Z" transform="translate(-4.51 -4.721)"/><path d="M505.956,170.541a9.963,9.963,0,0,1,1.69,5.48,10.073,10.073,0,0,1-1.69,5.553h-.6a10.884,10.884,0,0,0,1.536-5.816,10.727,10.727,0,0,0-1.536-5.217Z" transform="translate(-4.51 -4.721)"/><path d="M296.127,313.721a2.448,2.448,0,1,1,0,4.893h-3v3.67h-.816v-8.563Zm-.179,4.2a1.663,1.663,0,0,0,1.9-1.752c0-1.066-.624-1.75-1.919-1.75h-2.795v3.5Z" transform="translate(-4.51 -4.721)"/><path d="M302.788,316.767h-.12A2.123,2.123,0,0,0,300.485,319v3.286h-.755V316.1h.695v1.451h.024a2.258,2.258,0,0,1,2.183-1.535h.156Z" transform="translate(-4.51 -4.721)"/><path d="M308.715,319.214v.18h-4.761a2.183,2.183,0,0,0,2.038,2.435,1.877,1.877,0,0,0,1.943-1.584h.756a2.52,2.52,0,0,1-2.7,2.219c-1.859,0-2.794-1.379-2.794-3.274,0-1.691.875-3.275,2.794-3.275C307.731,315.915,308.715,317.3,308.715,319.214Zm-.756-.455a2.082,2.082,0,0,0-1.979-2.207c-1.079,0-1.859.863-2.026,2.207Z" transform="translate(-4.51 -4.721)"/><path d="M309.882,316.1l1.943,5.432h.024l1.919-5.432h.779l-2.315,6.188h-.8l-2.387-6.188Z" transform="translate(-4.51 -4.721)"/><path d="M316.062,313.721v1.212h-.756v-1.212Zm0,2.375v6.188h-.756V316.1Z" transform="translate(-4.51 -4.721)"/><path d="M322.719,319.214v.18h-4.761A2.183,2.183,0,0,0,320,321.829a1.878,1.878,0,0,0,1.943-1.584h.756a2.52,2.52,0,0,1-2.7,2.219c-1.859,0-2.794-1.379-2.794-3.274,0-1.691.875-3.275,2.794-3.275C321.735,315.915,322.719,317.3,322.719,319.214Zm-.756-.455a2.082,2.082,0,0,0-1.979-2.207c-1.079,0-1.859.863-2.026,2.207Z" transform="translate(-4.51 -4.721)"/><path d="M323.921,316.1l1.583,5.3h.025l1.511-5.3h.851l1.511,5.3h.024l1.584-5.3h.8l-1.991,6.188H329l-1.523-5.2h-.024l-1.511,5.2h-.828l-1.991-6.188Z" transform="translate(-4.51 -4.721)"/><path d="M337.839,319.214v.18h-4.761a2.183,2.183,0,0,0,2.038,2.435,1.877,1.877,0,0,0,1.943-1.584h.756a2.52,2.52,0,0,1-2.7,2.219c-1.859,0-2.794-1.379-2.794-3.274,0-1.691.875-3.275,2.794-3.275C336.855,315.915,337.839,317.3,337.839,319.214Zm-.756-.455a2.082,2.082,0,0,0-1.979-2.207c-1.079,0-1.859.863-2.026,2.207Z" transform="translate(-4.51 -4.721)"/><path d="M341.92,316.767h-.12A2.123,2.123,0,0,0,339.617,319v3.286h-.755V316.1h.695v1.451h.024a2.258,2.258,0,0,1,2.183-1.535h.156Z" transform="translate(-4.51 -4.721)"/><path d="M348.16,313.541a10.837,10.837,0,0,0-1.535,5.817,10.449,10.449,0,0,0,1.535,5.217h-.6a9.957,9.957,0,0,1-1.691-5.481,10.135,10.135,0,0,1,1.691-5.553Z" transform="translate(-4.51 -4.721)"/><path d="M354.446,313.721v.7h-4.617v3.094h4.1v.695h-4.1v4.078h-.815v-8.563Z" transform="translate(-4.51 -4.721)"/><path d="M356.081,313.721v8.563h-.756v-8.563Z" transform="translate(-4.51 -4.721)"/><path d="M362.247,317.907v3.285a.4.4,0,0,0,.443.456.622.622,0,0,0,.24-.047v.635a2.172,2.172,0,0,1-.48.048c-.659,0-.9-.288-.9-1.043V321.2h-.024a2.359,2.359,0,0,1-2.255,1.26c-1.223,0-2.075-.623-2.075-1.811a1.508,1.508,0,0,1,.612-1.332,4.749,4.749,0,0,1,2.4-.623c.887-.095,1.283-.132,1.283-.875,0-.935-.6-1.271-1.619-1.271s-1.619.491-1.655,1.439h-.756c.084-1.368.972-2.076,2.518-2.076C361.611,315.915,362.247,316.683,362.247,317.907Zm-.78.994c-.1.168-.372.241-.779.3-.373.06-1.14.156-1.512.252-.612.156-1.223.407-1.223,1.15a1.283,1.283,0,0,0,1.379,1.225,1.99,1.99,0,0,0,2.159-1.932v-1Z" transform="translate(-4.51 -4.721)"/><path d="M368.223,317.907h-.756c-.024-.851-.659-1.355-1.619-1.355-.7,0-1.463.275-1.463,1.066,0,.528.468.864,1.391,1.069l.791.179c.672.144,1.871.455,1.871,1.738,0,1.344-1.331,1.86-2.482,1.86a2.234,2.234,0,0,1-2.543-2.183h.756a1.628,1.628,0,0,0,1.823,1.548c.791,0,1.691-.36,1.691-1.164,0-.636-.468-.947-1.463-1.163l-.8-.181c-1.211-.275-1.787-.743-1.787-1.666,0-1.259,1.235-1.74,2.327-1.74A2.028,2.028,0,0,1,368.223,317.907Z" transform="translate(-4.51 -4.721)"/><path d="M370.289,313.721v5.373l3.43-3h1.007l-2.638,2.29,2.818,3.9h-.948l-2.446-3.37-1.223,1.02v2.35h-.756v-8.563Z" transform="translate(-4.51 -4.721)"/><path d="M375.4,313.541a9.97,9.97,0,0,1,1.691,5.481,10.074,10.074,0,0,1-1.691,5.553h-.6a10.883,10.883,0,0,0,1.535-5.816,10.73,10.73,0,0,0-1.535-5.218Z" transform="translate(-4.51 -4.721)"/><polyline points="256.53 66.206 338.53 65.841 338.53 86.806" style="fill:none;stroke:#4d4d4d;stroke-miterlimit:10"/><path d="M343.04,97.562a30.236,30.236,0,0,0-4.756-8.548l4.756,1.72,4.755-1.72A30.209,30.209,0,0,0,343.04,97.562Z" transform="translate(-4.51 -4.721)" style="fill:#4d4d4d"/><g id="g3275"><path id="path2464" d="M358.967,145.244c-4.774.985-5.1-.632-5.1-.632,5.042-7.48,7.149-16.975,5.33-19.3-4.961-6.339-13.549-3.341-13.693-3.263l-.046.008a16.977,16.977,0,0,0-3.185-.332,7.868,7.868,0,0,0-5.043,1.509s-15.321-6.311-14.608,7.938c.151,3.032,4.345,22.938,9.346,16.925,1.828-2.2,3.6-4.057,3.6-4.057a4.632,4.632,0,0,0,3.028.773l.086-.072a3.352,3.352,0,0,0,.034.856c-1.288,1.439-.91,1.692-3.485,2.222-2.607.537-1.076,1.494-.076,1.744a5.3,5.3,0,0,0,5.91-1.92l-.075.3c.5.4.859,2.63.8,4.648a12.808,12.808,0,0,0,.3,4.485c.4,1.082.8,3.517,4.181,2.791,2.829-.606,4.295-2.178,4.5-4.8.145-1.863.473-1.587.493-3.253l.263-.789c.3-2.526.048-3.341,1.791-2.962l.424.037a9.646,9.646,0,0,0,3.948-.664c2.122-.985,3.38-2.629,1.288-2.2Z" transform="translate(-4.51 -4.721)" style="fill:#29abe2;stroke:#4d4d4d;stroke-linecap:round;stroke-linejoin:round;stroke-width:0.5px"/><path id="path2466" d="M341.262,146.709c-.131,4.7.033,9.433.493,10.583s1.445,3.388,4.831,2.662c2.83-.606,3.859-1.78,4.306-4.371.329-1.906.963-7.2,1.044-8.284" transform="translate(-4.51 -4.721)" style="fill:#29abe2;stroke:#4d4d4d;stroke-linecap:round;stroke-linejoin:round;stroke-width:0.5px"/><path id="path2468" d="M337.2,123.148s-15.331-6.266-14.618,7.983c.151,3.032,4.345,22.939,9.347,16.926,1.827-2.2,3.48-3.924,3.48-3.924" transform="translate(-4.51 -4.721)" style="fill:#29abe2;stroke:#4d4d4d;stroke-linecap:round;stroke-linejoin:round;stroke-width:0.5px"/><path id="path2470" d="M345.484,122c-.53.167,8.529-3.311,13.677,3.267,1.818,2.324-.289,11.819-5.33,19.3" transform="translate(-4.51 -4.721)" style="fill:#29abe2;stroke:#4d4d4d;stroke-linecap:round;stroke-linejoin:round;stroke-width:0.5px"/><path id="path2472" d="M353.831,144.571s.328,1.617,5.1.631c2.092-.432.833,1.213-1.289,2.2-1.741.808-5.645,1.015-5.709-.1-.164-2.882,2.055-2.006,1.9-2.728-.145-.651-1.137-1.289-1.793-2.88-.573-1.389-7.859-12.04,2.02-10.458.362-.075-2.577-9.4-11.822-9.549s-8.941,11.368-8.941,11.368" transform="translate(-4.51 -4.721)" style="fill:#29abe2;stroke:#4d4d4d;stroke-linecap:round;stroke-linejoin:bevel;stroke-width:0.5px"/><path id="path2474" d="M338.675,145.556c-1.289,1.44-.91,1.692-3.486,2.223-2.606.537-1.075,1.493-.076,1.743a5.3,5.3,0,0,0,5.91-1.92,1.769,1.769,0,0,0-.8-2.425,1.17,1.17,0,0,0-1.553.379Z" transform="translate(-4.51 -4.721)" style="fill:#29abe2;stroke:#4d4d4d;stroke-linecap:round;stroke-linejoin:round;stroke-width:0.5px"/><path id="path2476" d="M338.59,145.531a6.808,6.808,0,0,1,.715-3.032c.657-1.768,2.173-3.536.961-9.144-.9-4.179-6.967-.87-6.971-.3a28.33,28.33,0,0,1-.1,5.557c-.49,3.5,2.229,6.467,5.361,6.164" transform="translate(-4.51 -4.721)" style="fill:#29abe2;stroke:#4d4d4d;stroke-linecap:round;stroke-linejoin:round;stroke-width:0.5px"/><path id="path2478" d="M337.148,133c-.028.194.354.71.852.779a.918.918,0,0,0,.949-.527c.027-.194-.355-.407-.853-.476s-.922.031-.948.224Z" transform="translate(-4.51 -4.721)" style="fill:#29abe2;stroke:#4d4d4d;stroke-width:0.5px"/><path id="path2480" d="M352.311,132.572c.027.194-.354.71-.852.779a.919.919,0,0,1-.95-.528c-.026-.193.355-.406.852-.476s.923.032.95.225Z" transform="translate(-4.51 -4.721)" style="fill:#29abe2;stroke:#4d4d4d;stroke-width:0.5px"/><path id="path2482" d="M354.058,131.233c.082,1.518-.327,2.552-.378,4.168-.077,2.349,1.12,5.038-.683,7.73" transform="translate(-4.51 -4.721)" style="fill:#29abe2;stroke:#4d4d4d;stroke-linecap:round;stroke-linejoin:round;stroke-width:0.5px"/></g><path id="path2484" d="M320.773,119.517" transform="translate(-4.51 -4.721)" style="fill:#29abe2;stroke:#4d4d4d;stroke-linecap:round;stroke-linejoin:round;stroke-width:0.5px"/><path d="M295.1,170.721c1.535,0,2.627.756,2.627,2.231a2.058,2.058,0,0,1-1.668,2.182v.024c1.343.18,1.475,1.248,1.511,2.147a4.083,4.083,0,0,0,.384,1.979h-.9a4.447,4.447,0,0,1-.24-1.571,3.1,3.1,0,0,0-.468-1.751,1.349,1.349,0,0,0-1.116-.48h-3.213v3.8H291.2v-8.563Zm-.024,4.066a1.7,1.7,0,0,0,1.835-1.667,1.6,1.6,0,0,0-1.835-1.7h-3.058v3.37Z" transform="translate(-4.51 -4.721)"/><path d="M302.024,170.721c2.531,0,4.078,1.247,4.078,4.281,0,2.819-1.331,4.282-4.09,4.282h-2.806v-8.563Zm-.275,7.867c2.362,0,3.538-.911,3.538-3.586,0-2.614-1.092-3.585-3.562-3.585h-1.7v7.171Z" transform="translate(-4.51 -4.721)"/><path d="M311.048,170.721c1.631,0,2.746.635,2.746,2.087a1.936,1.936,0,0,1-1.487,1.931v.024a2.006,2.006,0,0,1,1.811,2.087c0,1.583-1.079,2.434-3.058,2.434h-3.634v-8.563Zm.012,3.754c1.188,0,1.919-.576,1.919-1.452,0-1.079-.66-1.606-1.943-1.606h-2.794v3.058Zm0,4.113c1.439,0,2.243-.539,2.243-1.762,0-1.092-.8-1.656-2.255-1.656h-2.806v3.418Z" transform="translate(-4.51 -4.721)"/><path d="M320.805,170.541a10.826,10.826,0,0,0-1.535,5.817,10.439,10.439,0,0,0,1.535,5.217h-.6a9.963,9.963,0,0,1-1.691-5.481,10.143,10.143,0,0,1,1.691-5.553Z" transform="translate(-4.51 -4.721)"/><path d="M325.472,170.721a2.448,2.448,0,1,1,0,4.893h-3v3.67h-.816v-8.563Zm-.18,4.2a1.662,1.662,0,0,0,1.9-1.751c0-1.067-.624-1.75-1.919-1.75h-2.794v3.5Z" transform="translate(-4.51 -4.721)"/><path d="M334.615,176.19c0,1.811-1.067,3.274-2.927,3.274a3.295,3.295,0,1,1,2.927-3.274Zm-2.927,2.639a2.688,2.688,0,0,0-.011-5.278c-1.391,0-2.159,1.283-2.159,2.639S330.286,178.829,331.688,178.829Z" transform="translate(-4.51 -4.721)"/><path d="M340.208,174.907h-.756c-.024-.852-.66-1.356-1.619-1.356-.7,0-1.463.276-1.463,1.068,0,.527.467.863,1.391,1.067l.791.18c.672.144,1.871.456,1.871,1.739,0,1.343-1.331,1.859-2.482,1.859a2.233,2.233,0,0,1-2.543-2.183h.756a1.627,1.627,0,0,0,1.823,1.548c.792,0,1.691-.36,1.691-1.164,0-.636-.468-.947-1.463-1.163l-.8-.18c-1.211-.276-1.787-.744-1.787-1.667,0-1.259,1.236-1.739,2.327-1.739A2.027,2.027,0,0,1,340.208,174.907Z" transform="translate(-4.51 -4.721)"/><path d="M342.717,171.237V173.1h1.26v.635h-1.26v4.222c0,.54.156.768.7.768.132,0,.348-.013.564-.036v.647c-.288.012-.432.024-.672.024-1,0-1.343-.335-1.343-1.343v-4.282h-1.08V173.1h1.08v-1.859Z" transform="translate(-4.51 -4.721)"/><path d="M349.519,174.163h.024V173.1h.756v5.709c0,1.954-.863,2.95-2.735,2.95-1.379,0-2.494-.66-2.578-1.871h.755c.132.78.8,1.235,1.811,1.235,1.416,0,1.991-.839,1.991-2.314v-.864h-.024a2.116,2.116,0,0,1-1.967,1.271c-1.859,0-2.794-1.259-2.794-3.178a2.827,2.827,0,0,1,2.794-3.118A2.155,2.155,0,0,1,349.519,174.163Zm-1.967,4.414c1.236,0,1.991-1.116,1.991-2.459,0-1.26-.575-2.567-2-2.567-1.284,0-2.027,1.092-2.027,2.567C345.514,177.377,346.161,178.577,347.552,178.577Z" transform="translate(-4.51 -4.721)"/><path d="M354.8,173.767h-.12A2.123,2.123,0,0,0,352.5,176v3.286h-.755V173.1h.695v1.451h.024a2.258,2.258,0,0,1,2.183-1.535h.156Z" transform="translate(-4.51 -4.721)"/><path d="M360.727,176.214v.18h-4.762A2.184,2.184,0,0,0,358,178.829a1.877,1.877,0,0,0,1.943-1.584h.756a2.522,2.522,0,0,1-2.7,2.219c-1.859,0-2.8-1.379-2.8-3.274,0-1.691.876-3.274,2.8-3.274C359.743,172.916,360.727,174.3,360.727,176.214Zm-.756-.456a2.083,2.083,0,0,0-1.979-2.207c-1.079,0-1.859.864-2.027,2.207Z" transform="translate(-4.51 -4.721)"/><path d="M367.854,173.2h-.815a2.115,2.115,0,0,0-2.351-1.967c-1.164,0-2.135.479-2.135,1.7a1.331,1.331,0,0,0,1.2,1.284l2.087.516c1.655.407,2.315,1.139,2.315,2.279,0,.839-.456,2.446-3.274,2.446-2.111,0-3.419-.971-3.419-2.782v-.216h.816v.072c0,1.571,1.068,2.231,2.77,2.231.972,0,2.291-.516,2.291-1.74,0-.779-.6-1.259-1.715-1.535l-1.955-.479c-1.271-.312-1.931-.912-1.931-2.063,0-.972.672-2.411,2.939-2.411C366.487,170.541,367.854,171.513,367.854,173.2Z" transform="translate(-4.51 -4.721)"/><path d="M377.069,175a4.616,4.616,0,0,1-1.3,3.394l1.223.936-.408.5-1.331-1.007a3.712,3.712,0,0,1-2.218.635c-2.675,0-4.042-2.075-4.042-4.462,0-2.434,1.415-4.461,4.042-4.461S377.069,172.58,377.069,175Zm-4.029,3.767a2.941,2.941,0,0,0,1.583-.42L373.5,177.5l.42-.516,1.247.948A3.963,3.963,0,0,0,376.253,175c0-1.906-.971-3.765-3.226-3.765-2.158,0-3.214,1.775-3.214,3.765C369.813,176.9,370.785,178.769,373.04,178.769Z" transform="translate(-4.51 -4.721)"/><path d="M379.161,170.721v7.867h4.8v.7h-5.612v-8.563Z" transform="translate(-4.51 -4.721)"/><path d="M384.514,170.541a9.97,9.97,0,0,1,1.691,5.481,10.074,10.074,0,0,1-1.691,5.553h-.6a10.893,10.893,0,0,0,1.535-5.817,10.743,10.743,0,0,0-1.535-5.217Z" transform="translate(-4.51 -4.721)"/><path d="M548.522,319.721l3.358,8.563H551l-1.043-2.662h-3.9l-1.031,2.662h-.876l3.454-8.563Zm-2.207,5.2h3.37l-1.655-4.39Z" transform="translate(-4.51 -4.721)"/><path d="M553.264,322.1v3.874c0,1.079.3,1.859,1.643,1.859,1.295,0,1.87-1.2,1.87-2.5V322.1h.756v6.188h-.7v-1.115h-.024a2.3,2.3,0,0,1-2.134,1.3c-1.559,0-2.171-.887-2.171-2.351V322.1Z" transform="translate(-4.51 -4.721)"/><path d="M560.163,320.237V322.1h1.259v.635h-1.259v4.222c0,.54.156.768.7.768.132,0,.348-.013.563-.036v.647c-.287.013-.431.024-.671.024-1,0-1.343-.335-1.343-1.343v-4.282h-1.08V322.1h1.08v-1.859Z" transform="translate(-4.51 -4.721)"/><path d="M568.057,325.19c0,1.811-1.068,3.274-2.927,3.274a3.3,3.3,0,1,1,2.927-3.274Zm-2.927,2.639a2.687,2.687,0,0,0-.012-5.277c-1.391,0-2.159,1.283-2.159,2.638S563.727,327.829,565.13,327.829Z" transform="translate(-4.51 -4.721)"/><path d="M573.721,323.127a2.088,2.088,0,0,1,1.979-1.212c1.367,0,2.039.744,2.039,2.148v4.221h-.756V324.11c0-1.091-.456-1.558-1.462-1.558-1.165,0-1.68.863-1.68,2.242v3.49h-.756V324.1c0-1-.432-1.547-1.3-1.547-1.271,0-1.847.947-1.847,2.278v3.454h-.755V322.1h.7v1.044h.036a2.122,2.122,0,0,1,2.027-1.225A1.719,1.719,0,0,1,573.721,323.127Z" transform="translate(-4.51 -4.721)"/><path d="M583.9,323.907v3.285a.4.4,0,0,0,.444.456.627.627,0,0,0,.24-.047v.635a2.184,2.184,0,0,1-.48.048c-.661,0-.9-.288-.9-1.043V327.2h-.024a2.356,2.356,0,0,1-2.254,1.26c-1.224,0-2.075-.623-2.075-1.811a1.506,1.506,0,0,1,.612-1.332,4.74,4.74,0,0,1,2.4-.623c.887-.095,1.284-.132,1.284-.875,0-.935-.6-1.271-1.62-1.271s-1.619.491-1.655,1.439h-.756c.084-1.368.972-2.076,2.519-2.076C583.261,321.915,583.9,322.683,583.9,323.907Zm-.78.994c-.1.168-.372.241-.779.3-.372.06-1.14.156-1.511.252-.612.156-1.224.407-1.224,1.15a1.283,1.283,0,0,0,1.379,1.225,1.991,1.991,0,0,0,2.16-1.932v-1Z" transform="translate(-4.51 -4.721)"/><path d="M586.61,320.237V322.1h1.26v.635h-1.26v4.222c0,.54.157.768.7.768.131,0,.347-.013.563-.036v.647c-.287.013-.432.024-.672.024-1,0-1.343-.335-1.343-1.343v-4.282h-1.079V322.1h1.079v-1.859Z" transform="translate(-4.51 -4.721)"/><path d="M589.731,319.721v1.212h-.755v-1.212Zm0,2.375v6.188h-.755V322.1Z" transform="translate(-4.51 -4.721)"/><path d="M596.3,324.038h-.756a1.675,1.675,0,0,0-1.751-1.486,2.689,2.689,0,0,0,0,5.277,1.858,1.858,0,0,0,1.8-1.764h.756a2.5,2.5,0,0,1-2.555,2.4,3.3,3.3,0,0,1,0-6.549A2.3,2.3,0,0,1,596.3,324.038Z" transform="translate(-4.51 -4.721)"/><path d="M602.125,323.907v3.285a.4.4,0,0,0,.444.456.622.622,0,0,0,.24-.047v.635a2.178,2.178,0,0,1-.48.048c-.66,0-.9-.288-.9-1.043V327.2h-.024a2.358,2.358,0,0,1-2.255,1.26c-1.223,0-2.075-.623-2.075-1.811a1.506,1.506,0,0,1,.613-1.332,4.744,4.744,0,0,1,2.4-.623c.888-.095,1.283-.132,1.283-.875,0-.935-.6-1.271-1.619-1.271s-1.619.491-1.655,1.439h-.756c.084-1.368.973-2.076,2.519-2.076C601.489,321.915,602.125,322.683,602.125,323.907Zm-.78.994c-.1.168-.371.241-.78.3-.371.06-1.138.156-1.51.252-.613.156-1.224.407-1.224,1.15a1.283,1.283,0,0,0,1.379,1.225,1.99,1.99,0,0,0,2.159-1.932v-1Z" transform="translate(-4.51 -4.721)"/><path d="M604.407,319.721v8.563h-.756v-8.563Z" transform="translate(-4.51 -4.721)"/><path d="M606.627,319.721v8.563h-.756v-8.563Z" transform="translate(-4.51 -4.721)"/><path d="M608.187,322.1l2.039,5.276,1.907-5.276h.755l-2.686,7.135a3.152,3.152,0,0,1-.576,1.02,1.354,1.354,0,0,1-1.02.324,2.136,2.136,0,0,1-.611-.06v-.635a2.9,2.9,0,0,0,.516.059.849.849,0,0,0,.719-.3,4.678,4.678,0,0,0,.624-1.379l-2.47-6.165Z" transform="translate(-4.51 -4.721)"/><path d="M559.416,336.384H558.6a2.674,2.674,0,0,0-2.759-2.147c-2.266,0-3.226,1.895-3.226,3.766,0,1.894.971,3.766,3.226,3.766A2.827,2.827,0,0,0,558.8,338.7v-.072h-2.915v-.695h3.634v4.353h-.587l-.108-1.558H558.8a3.087,3.087,0,0,1-2.963,1.738c-2.65,0-4.042-2.051-4.042-4.461,0-2.352,1.344-4.462,4.042-4.462A3.363,3.363,0,0,1,559.416,336.384Z" transform="translate(-4.51 -4.721)"/><path d="M566.161,339.214v.18H561.4a2.184,2.184,0,0,0,2.039,2.435,1.878,1.878,0,0,0,1.943-1.584h.756a2.52,2.52,0,0,1-2.7,2.219c-1.859,0-2.794-1.379-2.794-3.274,0-1.691.875-3.275,2.794-3.275C565.177,335.915,566.161,337.3,566.161,339.214Zm-.756-.455a2.082,2.082,0,0,0-1.979-2.207c-1.079,0-1.859.863-2.027,2.207Z" transform="translate(-4.51 -4.721)"/><path d="M572.2,338.267v4.017h-.756V338.41c0-1.211-.48-1.858-1.571-1.858a1.971,1.971,0,0,0-1.943,2.182v3.55h-.756V336.1h.756v1.067h.024a2.1,2.1,0,0,1,1.991-1.248C571.525,335.915,572.2,336.683,572.2,338.267Z" transform="translate(-4.51 -4.721)"/><path d="M578.833,339.214v.18h-4.762a2.184,2.184,0,0,0,2.039,2.435,1.878,1.878,0,0,0,1.943-1.584h.756a2.521,2.521,0,0,1-2.7,2.219c-1.859,0-2.795-1.379-2.795-3.274,0-1.691.876-3.275,2.795-3.275C577.849,335.915,578.833,337.3,578.833,339.214Zm-.756-.455a2.082,2.082,0,0,0-1.978-2.207c-1.08,0-1.86.863-2.028,2.207Z" transform="translate(-4.51 -4.721)"/><path d="M582.913,336.767h-.119A2.124,2.124,0,0,0,580.61,339v3.286h-.755V336.1h.7v1.451h.024a2.258,2.258,0,0,1,2.183-1.535h.155Z" transform="translate(-4.51 -4.721)"/><path d="M588.349,337.907v3.285a.4.4,0,0,0,.443.456.622.622,0,0,0,.24-.047v.635a2.166,2.166,0,0,1-.48.048c-.659,0-.9-.288-.9-1.043V341.2h-.024a2.359,2.359,0,0,1-2.255,1.26c-1.223,0-2.074-.623-2.074-1.811a1.508,1.508,0,0,1,.611-1.332,4.749,4.749,0,0,1,2.4-.623c.887-.095,1.283-.132,1.283-.875,0-.935-.6-1.271-1.619-1.271s-1.62.491-1.655,1.439h-.756c.084-1.368.971-2.076,2.519-2.076C587.713,335.915,588.349,336.683,588.349,337.907Zm-.78.994c-.095.168-.372.241-.779.3-.373.06-1.141.156-1.512.252-.611.156-1.223.407-1.223,1.15a1.283,1.283,0,0,0,1.38,1.225,1.991,1.991,0,0,0,2.158-1.932v-1Z" transform="translate(-4.51 -4.721)"/><path d="M591.063,334.237V336.1h1.258v.635h-1.258v4.222c0,.54.155.768.7.768.131,0,.347-.013.562-.036v.647c-.287.013-.431.024-.671.024-1,0-1.342-.335-1.342-1.343v-4.282h-1.08V336.1h1.08v-1.859Z" transform="translate(-4.51 -4.721)"/><path d="M598.62,339.214v.18h-4.762a2.185,2.185,0,0,0,2.039,2.435,1.878,1.878,0,0,0,1.944-1.584h.756a2.522,2.522,0,0,1-2.7,2.219c-1.859,0-2.794-1.379-2.794-3.274,0-1.691.876-3.275,2.794-3.275C597.637,335.915,598.62,337.3,598.62,339.214Zm-.756-.455a2.081,2.081,0,0,0-1.978-2.207c-1.08,0-1.86.863-2.028,2.207Z" transform="translate(-4.51 -4.721)"/><path d="M605.088,333.721v8.563h-.695v-1.176h-.025a2.418,2.418,0,0,1-2.207,1.356c-1.834,0-2.782-1.44-2.782-3.274,0-1.775.911-3.275,2.782-3.275a2.21,2.21,0,0,1,2.148,1.356h.024v-3.55Zm-2.927,8.108c1.5,0,2.172-1.225,2.172-2.639,0-1.355-.625-2.638-2.172-2.638-1.427,0-2.026,1.331-2.026,2.638C600.135,340.533,600.759,341.829,602.161,341.829Z" transform="translate(-4.51 -4.721)"/><path d="M554.919,347.721v3.717H560v-3.717h.815v8.563H560v-4.15h-5.085v4.15H554.1v-8.563Z" transform="translate(-4.51 -4.721)"/><path d="M567.612,353.214v.18h-4.761a2.184,2.184,0,0,0,2.039,2.435,1.878,1.878,0,0,0,1.943-1.584h.755a2.519,2.519,0,0,1-2.7,2.219c-1.859,0-2.795-1.379-2.795-3.274,0-1.691.876-3.275,2.795-3.275C566.629,349.915,567.612,351.3,567.612,353.214Zm-.756-.455a2.081,2.081,0,0,0-1.978-2.207c-1.08,0-1.859.863-2.027,2.207Z" transform="translate(-4.51 -4.721)"/><path d="M573.349,351.907v3.285a.4.4,0,0,0,.443.456.622.622,0,0,0,.24-.047v.635a2.172,2.172,0,0,1-.48.048c-.659,0-.9-.288-.9-1.043V355.2h-.024a2.359,2.359,0,0,1-2.255,1.26c-1.223,0-2.075-.623-2.075-1.811a1.508,1.508,0,0,1,.612-1.332,4.749,4.749,0,0,1,2.4-.623c.887-.095,1.283-.132,1.283-.875,0-.935-.6-1.271-1.619-1.271s-1.62.491-1.655,1.439h-.756c.084-1.368.972-2.076,2.519-2.076C572.713,349.915,573.349,350.683,573.349,351.907Zm-.78.994c-.1.168-.372.241-.779.3-.373.06-1.14.156-1.512.252-.611.156-1.223.407-1.223,1.15a1.283,1.283,0,0,0,1.379,1.225,1.991,1.991,0,0,0,2.159-1.932v-1Z" transform="translate(-4.51 -4.721)"/><path d="M580.308,347.721v8.563h-.7v-1.176h-.023a2.42,2.42,0,0,1-2.207,1.356c-1.835,0-2.783-1.44-2.783-3.274,0-1.775.912-3.275,2.783-3.275a2.207,2.207,0,0,1,2.146,1.356h.025v-3.55Zm-2.926,8.108c1.5,0,2.171-1.225,2.171-2.639,0-1.355-.624-2.638-2.171-2.638-1.428,0-2.028,1.331-2.028,2.638C575.354,354.533,575.979,355.829,577.382,355.829Z" transform="translate(-4.51 -4.721)"/><path d="M582.519,347.721v8.563h-.756v-8.563Z" transform="translate(-4.51 -4.721)"/><path d="M584.738,347.721v1.212h-.756v-1.212Zm0,2.375v6.188h-.756V350.1Z" transform="translate(-4.51 -4.721)"/><path d="M591.2,352.267v4.017h-.756V352.41c0-1.211-.48-1.858-1.571-1.858a1.97,1.97,0,0,0-1.942,2.182v3.55h-.756V350.1h.756v1.067h.023a2.1,2.1,0,0,1,1.99-1.248C590.532,349.915,591.2,350.683,591.2,352.267Z" transform="translate(-4.51 -4.721)"/><path d="M597.839,353.214v.18h-4.761a2.184,2.184,0,0,0,2.038,2.435,1.878,1.878,0,0,0,1.944-1.584h.755a2.519,2.519,0,0,1-2.7,2.219c-1.858,0-2.794-1.379-2.794-3.274,0-1.691.876-3.275,2.794-3.275C596.856,349.915,597.839,351.3,597.839,353.214Zm-.756-.455a2.082,2.082,0,0,0-1.979-2.207c-1.079,0-1.859.863-2.026,2.207Z" transform="translate(-4.51 -4.721)"/><path d="M603.323,351.907h-.755c-.024-.851-.659-1.355-1.619-1.355-.7,0-1.464.275-1.464,1.066,0,.528.469.864,1.392,1.069l.792.179c.672.144,1.871.455,1.871,1.738,0,1.344-1.332,1.86-2.482,1.86a2.233,2.233,0,0,1-2.543-2.183h.756a1.626,1.626,0,0,0,1.822,1.548c.792,0,1.691-.36,1.691-1.164,0-.636-.468-.947-1.463-1.163l-.8-.181c-1.211-.275-1.787-.743-1.787-1.666,0-1.259,1.236-1.74,2.328-1.74A2.026,2.026,0,0,1,603.323,351.907Z" transform="translate(-4.51 -4.721)"/><g id="group1072-2162-2" data-name="group1072-2162"><g id="shape1073-2163-2" data-name="shape1073-2163"><rect x="565.614" y="270.338" width="20.116" height="3.725" style="fill:#2a3282"/></g><g id="shape1074-2165-2" data-name="shape1074-2165"><rect x="565.614" y="276.894" width="20.116" height="3.725" style="fill:#2a3282"/></g><g id="shape1075-2167-2" data-name="shape1075-2167"><rect x="565.614" y="283.45" width="20.116" height="3.725" style="fill:#2a3282"/></g></g><g id="shape1076-2169-2" data-name="shape1076-2169"><path d="M592.934,259.562H564.656a6,6,0,0,0-6,6v32.991a6,6,0,0,0,6,6h31.351a6.006,6.006,0,0,0,6-6V268.514Zm3.043,41.572H564.682a2.332,2.332,0,0,1-2.306-2.435V265.6a2.309,2.309,0,0,1,2.309-2.309h26.3v7.45h7.3v28.088A2.309,2.309,0,0,1,595.977,301.134Z" transform="translate(-4.51 -4.721)" style="fill:#2a3282"/></g><polyline points="602.53 134.841 639.53 134.841 639.53 279.341 619.95 279.341" style="fill:none;stroke:#4d4d4d;stroke-miterlimit:10"/><path d="M618.425,284.062a30.245,30.245,0,0,0,8.547-4.756l-1.72,4.756,1.72,4.754A30.19,30.19,0,0,0,618.425,284.062Z" transform="translate(-4.51 -4.721)" style="fill:#4d4d4d"/><path id="a" d="M421.79,329.643V314.392l15.1,15.105V314.539" transform="translate(-4.51 -4.721)" style="fill:none;stroke:#090;stroke-linecap:round;stroke-linejoin:round;stroke-width:5px"/><path d="M446.146,312.552l-.547,1.019-4.222,7.675-.547.969.547.969,4.222,7.428.572,1.018h11.048l.546-1.115,3.147-6.344,1.412-2.875h-3.217l-8.024.025a1.975,1.975,0,1,0,0,3.95l4.85-.025-1.192,2.41h-6.26l-3.105-5.466,3.13-5.663h6.661l1.549,3.179h4l-2.519-6.037-.546-1.117h-11.5Z" transform="translate(-4.51 -4.721)" style="fill:#090"/><path d="M466.281,312.516a2.065,2.065,0,0,0-1.963,2.012v5.178h3.975v-5.178A2.067,2.067,0,0,0,466.281,312.516Z" transform="translate(-4.51 -4.721)" style="fill:#090"/><path id="a-2" data-name="a" d="M487.768,329.643V314.43l-15.1,15.106v-15" transform="translate(-4.51 -4.721)" style="fill:none;stroke:#090;stroke-linecap:round;stroke-linejoin:round;stroke-width:5px"/><path id="b" d="M494.1,314.4l15.171,15.118" transform="translate(-4.51 -4.721)" style="fill:none;stroke:#090;stroke-linecap:round;stroke-linejoin:round;stroke-width:5px"/><path id="b-2" data-name="b" d="M509.29,314.4l-15.171,15.118" transform="translate(-4.51 -4.721)" style="fill:none;stroke:#090;stroke-linecap:round;stroke-linejoin:round;stroke-width:5px"/><path d="M466.281,331.627a2.066,2.066,0,0,1-1.963-2.013V321.3h3.975v8.318A2.067,2.067,0,0,1,466.281,331.627Z" transform="translate(-4.51 -4.721)" style="fill:#090"/><path d="M416.844,342.721l1.943,7.5h.024l2.087-7.5h1.019l2.1,7.5h.025l1.954-7.5h.816l-2.363,8.563h-.864l-2.17-7.664h-.024l-2.159,7.664h-.888l-2.374-8.563Z" transform="translate(-4.51 -4.721)"/><path d="M432.777,348.214v.18h-4.761a2.184,2.184,0,0,0,2.039,2.435A1.878,1.878,0,0,0,432,349.245h.755a2.519,2.519,0,0,1-2.7,2.219c-1.859,0-2.8-1.379-2.8-3.274,0-1.691.876-3.275,2.8-3.275C431.794,344.915,432.777,346.3,432.777,348.214Zm-.756-.455a2.081,2.081,0,0,0-1.978-2.207c-1.08,0-1.859.863-2.027,2.207Z" transform="translate(-4.51 -4.721)"/><path d="M434.556,342.721v3.55h.024a2.209,2.209,0,0,1,2.159-1.356c1.8,0,2.77,1.428,2.77,3.275,0,1.788-.924,3.274-2.782,3.274a2.288,2.288,0,0,1-2.207-1.356H434.5v1.176h-.7v-8.563Zm0,5.457c0,1.367.623,2.651,2.171,2.651,1.427,0,2.026-1.344,2.026-2.639,0-1.332-.611-2.638-2.039-2.638S434.556,346.667,434.556,348.178Z" transform="translate(-4.51 -4.721)"/><path d="M450.128,345.2h-.815a2.115,2.115,0,0,0-2.351-1.967c-1.163,0-2.135.479-2.135,1.7a1.334,1.334,0,0,0,1.2,1.285l2.087.515c1.655.407,2.314,1.139,2.314,2.279,0,.838-.455,2.446-3.274,2.446-2.111,0-3.418-.971-3.418-2.782v-.216h.815v.072c0,1.57,1.068,2.231,2.771,2.231.971,0,2.291-.516,2.291-1.74,0-.779-.6-1.258-1.716-1.535l-1.954-.479c-1.272-.313-1.931-.912-1.931-2.063,0-.973.672-2.411,2.938-2.411C448.761,342.541,450.128,343.513,450.128,345.2Z" transform="translate(-4.51 -4.721)"/><path d="M456.789,348.214v.18h-4.761a2.184,2.184,0,0,0,2.038,2.435,1.877,1.877,0,0,0,1.943-1.584h.756a2.52,2.52,0,0,1-2.7,2.219c-1.858,0-2.794-1.379-2.794-3.274,0-1.691.875-3.275,2.794-3.275C455.806,344.915,456.789,346.3,456.789,348.214Zm-.756-.455a2.081,2.081,0,0,0-1.978-2.207c-1.08,0-1.86.863-2.027,2.207Z" transform="translate(-4.51 -4.721)"/><path d="M460.87,345.767h-.12A2.123,2.123,0,0,0,458.567,348v3.286h-.755V345.1h.695v1.451h.025a2.256,2.256,0,0,1,2.182-1.535h.156Z" transform="translate(-4.51 -4.721)"/><path d="M461.736,345.1l1.943,5.432h.024l1.919-5.432h.779l-2.315,6.188h-.8L460.9,345.1Z" transform="translate(-4.51 -4.721)"/><path d="M472.353,348.214v.18h-4.761a2.184,2.184,0,0,0,2.038,2.435,1.877,1.877,0,0,0,1.943-1.584h.756a2.52,2.52,0,0,1-2.7,2.219c-1.859,0-2.794-1.379-2.794-3.274,0-1.691.875-3.275,2.794-3.275C471.37,344.915,472.353,346.3,472.353,348.214Zm-.756-.455a2.081,2.081,0,0,0-1.978-2.207c-1.08,0-1.86.863-2.027,2.207Z" transform="translate(-4.51 -4.721)"/><path d="M476.434,345.767h-.12A2.123,2.123,0,0,0,474.131,348v3.286h-.755V345.1h.7v1.451h.024a2.258,2.258,0,0,1,2.183-1.535h.156Z" transform="translate(-4.51 -4.721)"/><path d="M482.674,342.541a10.837,10.837,0,0,0-1.535,5.817,10.449,10.449,0,0,0,1.535,5.217h-.6a9.957,9.957,0,0,1-1.691-5.481,10.135,10.135,0,0,1,1.691-5.553Z" transform="translate(-4.51 -4.721)"/><path d="M484.427,342.721l4.99,7.244h.023v-7.244h.816v8.563h-.912l-4.989-7.244h-.024v7.244h-.815v-8.563Z" transform="translate(-4.51 -4.721)"/><path d="M496.281,346.163h.024V345.1h.756v5.709c0,1.954-.864,2.95-2.735,2.95-1.379,0-2.494-.66-2.578-1.871h.755c.132.779.8,1.235,1.811,1.235,1.415,0,1.991-.839,1.991-2.314v-.865h-.024a2.116,2.116,0,0,1-1.967,1.272c-1.859,0-2.794-1.259-2.794-3.178a2.828,2.828,0,0,1,2.794-3.119A2.158,2.158,0,0,1,496.281,346.163Zm-1.967,4.414c1.235,0,1.991-1.116,1.991-2.459,0-1.26-.576-2.566-2-2.566-1.283,0-2.027,1.091-2.027,2.566C492.275,349.378,492.923,350.577,494.314,350.577Z" transform="translate(-4.51 -4.721)"/><path d="M499.271,342.721v1.212h-.756v-1.212Zm0,2.375v6.188h-.756V345.1Z" transform="translate(-4.51 -4.721)"/><path d="M505.736,347.267v4.017h-.756V347.41c0-1.211-.479-1.858-1.57-1.858a1.97,1.97,0,0,0-1.943,2.182v3.55h-.756V345.1h.756v1.067h.024a2.1,2.1,0,0,1,1.99-1.248C505.064,344.915,505.736,345.683,505.736,347.267Z" transform="translate(-4.51 -4.721)"/><path d="M507.586,345.1l1.764,2.35,1.727-2.35h.947l-2.231,2.962,2.411,3.226h-.959l-1.943-2.6-1.907,2.6h-.936l2.4-3.215-2.219-2.973Z" transform="translate(-4.51 -4.721)"/><path d="M512.807,342.541a9.97,9.97,0,0,1,1.691,5.481,10.074,10.074,0,0,1-1.691,5.553h-.6a10.883,10.883,0,0,0,1.535-5.816,10.73,10.73,0,0,0-1.535-5.218Z" transform="translate(-4.51 -4.721)"/><line x1="492.53" y1="132.841" x2="536.53" y2="132.841"/><line x1="492.53" y1="132.841" x2="530.495" y2="132.841" style="fill:none;stroke:#4d4d4d;stroke-miterlimit:10"/><path d="M541.04,137.562a30.2,30.2,0,0,0-8.547,4.755l1.72-4.755-1.72-4.755A30.2,30.2,0,0,0,541.04,137.562Z" transform="translate(-4.51 -4.721)" style="fill:#4d4d4d"/><line x1="367.53" y1="133.341" x2="416.53" y2="133.341"/><line x1="367.53" y1="133.341" x2="410.495" y2="133.341" style="fill:none;stroke:#4d4d4d;stroke-miterlimit:10"/><path d="M421.04,138.062a30.2,30.2,0,0,0-8.547,4.755l1.72-4.755-1.72-4.755A30.2,30.2,0,0,0,421.04,138.062Z" transform="translate(-4.51 -4.721)" style="fill:#4d4d4d"/><polyline points="574.59 245.841 575.03 215.833 355.53 215.833 355.53 190.876" style="fill:none;stroke:#4d4d4d;stroke-miterlimit:10"/><path d="M360.04,189.562a30.245,30.245,0,0,0,4.756,8.547l-4.756-1.72-4.755,1.72A30.217,30.217,0,0,0,360.04,189.562Z" transform="translate(-4.51 -4.721)" style="fill:#4d4d4d"/><line x1="324.53" y1="184.841" x2="324.53" y2="235.841"/><line x1="324.53" y1="184.841" x2="324.53" y2="229.806" style="fill:none;stroke:#4d4d4d;stroke-miterlimit:10"/><path d="M329.04,240.562a30.236,30.236,0,0,0-4.756-8.548l4.756,1.72,4.755-1.72A30.209,30.209,0,0,0,329.04,240.562Z" transform="translate(-4.51 -4.721)" style="fill:#4d4d4d"/><line x1="356.03" y1="272.341" x2="405.995" y2="272.341" style="fill:none;stroke:#4d4d4d;stroke-miterlimit:10"/><path d="M416.54,277.062a30.2,30.2,0,0,0-8.547,4.755l1.72-4.755-1.72-4.755A30.2,30.2,0,0,0,416.54,277.062Z" transform="translate(-4.51 -4.721)" style="fill:#4d4d4d"/><rect x="443.683" y="36.051" width="8.39" height="7.627" style="fill:#109fdb"/><rect x="433.767" y="36.051" width="8.39" height="7.627" style="fill:#109fdb"/><rect x="453.598" y="36.051" width="8.39" height="7.627" style="fill:#109fdb"/><rect x="463.514" y="36.051" width="8.39" height="7.627" style="fill:#109fdb"/><rect x="473.429" y="36.051" width="8.39" height="7.627" style="fill:#109fdb"/><rect x="443.683" y="26.898" width="8.39" height="7.627" style="fill:#109fdb"/><rect x="453.598" y="26.898" width="8.39" height="7.627" style="fill:#109fdb"/><rect x="463.514" y="26.898" width="8.39" height="7.627" style="fill:#109fdb"/><rect x="463.514" y="17.745" width="8.39" height="7.627" style="fill:#109fdb"/><path d="M511.319,43.126c-1.722-1.159-6.246-1.654-9.535-.768-.177-3.276-1.867-6.038-4.958-8.446l-1.144-.768-.763,1.152a13.147,13.147,0,0,0-1.907,8.062,9.6,9.6,0,0,0,1.907,4.991,12.518,12.518,0,0,1-7.246,1.92H433.138c-.97,5.759.691,27.643,25.933,27.643,18.739,0,34.137-8.428,41.187-26.107,2.32.038,8.444.416,11.441-5.375.073-.1.763-1.536.763-1.536Z" transform="translate(-4.51 -4.721)" style="fill:#109fdb;fill-rule:evenodd"/><g style="clip-path:url(#clip-path-2)"><g style="clip-path:url(#clip-path-3)"><rect x="430.64" y="57.98" width="34.323" height="18.334" style="fill:#fff"/></g></g><path d="M452.592,65.171a20.658,20.658,0,0,1-15.535,1.955l1.089,1.83a22.193,22.193,0,0,0,15.19-2.441C453.069,66.073,452.821,65.632,452.592,65.171Z" transform="translate(-4.51 -4.721)" style="fill:#006fb6;fill-rule:evenodd"/><ellipse cx="453.886" cy="56.785" rx="2.652" ry="2.67" style="fill:#fff"/><path d="M458.8,60.756a.757.757,0,0,1,.3-.594,1.489,1.489,0,0,0-.69-.174,1.526,1.526,0,1,0,1.516,1.525c0-.03-.007-.058-.009-.087a.743.743,0,0,1-.352.1A.765.765,0,0,1,458.8,60.756Z" transform="translate(-4.51 -4.721)" style="fill:#515f6c"/><path d="M511.1,42.991c-1.717-1.152-6.409-1.691-9.544-.78l-.7.987c-10.221,21.154-23.012,30.1-40.488,30.495-19.059-.052-23.827-10.1-25.17-23.8h-3.051c-.393,5.759,1.077,26.937,26.515,26.937,18.763,0,34.208-8.408,41.34-26.068,2.326.038,8.809.038,11.67-5.759l.58-1.228Z" transform="translate(-4.51 -4.721)" style="fill-rule:evenodd;opacity:0.05"/><rect x="435.293" y="37.576" width="0.763" height="4.576" style="fill:#006fb6"/><rect x="437.581" y="37.576" width="0.763" height="4.576" style="fill:#006fb6"/><rect x="439.869" y="37.576" width="0.763" height="4.576" style="fill:#006fb6"/><rect x="445.208" y="37.576" width="0.763" height="4.576" style="fill:#006fb6"/><rect x="447.496" y="37.576" width="0.763" height="4.576" style="fill:#006fb6"/><rect x="449.785" y="37.576" width="0.763" height="4.576" style="fill:#006fb6"/><rect x="455.124" y="37.576" width="0.763" height="4.576" style="fill:#006fb6"/><rect x="457.412" y="37.576" width="0.763" height="4.576" style="fill:#006fb6"/><rect x="459.7" y="37.576" width="0.763" height="4.576" style="fill:#006fb6"/><rect x="465.039" y="37.576" width="0.763" height="4.576" style="fill:#006fb6"/><rect x="467.327" y="37.576" width="0.763" height="4.576" style="fill:#006fb6"/><rect x="469.616" y="37.576" width="0.763" height="4.576" style="fill:#006fb6"/><rect x="474.955" y="37.576" width="0.763" height="4.576" style="fill:#006fb6"/><rect x="477.243" y="37.576" width="0.763" height="4.576" style="fill:#006fb6"/><rect x="479.531" y="37.576" width="0.763" height="4.576" style="fill:#006fb6"/><rect x="447.496" y="28.423" width="0.763" height="4.576" style="fill:#006fb6"/><rect x="449.785" y="28.423" width="0.763" height="4.576" style="fill:#006fb6"/><rect x="455.124" y="28.423" width="0.763" height="4.576" style="fill:#006fb6"/><rect x="457.412" y="28.423" width="0.763" height="4.576" style="fill:#006fb6"/><rect x="459.7" y="28.423" width="0.763" height="4.576" style="fill:#006fb6"/><rect x="465.039" y="28.423" width="0.763" height="4.576" style="fill:#006fb6"/><rect x="467.327" y="28.423" width="0.763" height="4.576" style="fill:#006fb6"/><rect x="469.616" y="28.423" width="0.763" height="4.576" style="fill:#006fb6"/><rect x="467.327" y="19.271" width="0.763" height="4.576" style="fill:#006fb6"/><rect x="465.039" y="19.271" width="0.763" height="4.576" style="fill:#006fb6"/><rect x="469.616" y="19.271" width="0.763" height="4.576" style="fill:#006fb6"/><rect x="445.208" y="28.423" width="0.763" height="4.576" style="fill:#006fb6"/><path d="M511.477,42.369c-1.833-1.233-6.01-1.7-9.283-1.07-.422-3.086-2.152-5.763-5.189-8.129l-1.8-1.209-1.186,1.791a13.9,13.9,0,0,0-2.032,8.551,10.845,10.845,0,0,0,1.575,4.728,12.774,12.774,0,0,1-5.706,1.346V39.246H477.94V20.94H466.5v9.153H446.667v9.153h-9.915v9.137h-4.525l-.107.64a24.248,24.248,0,0,0,.09,6.987,27.682,27.682,0,0,0,3.133,9.5c4.231,7.594,11.917,12.055,23.462,12.055,19.643,0,34.69-9.07,41.7-26.1a15.516,15.516,0,0,0,5.854-.76,10.022,10.022,0,0,0,5.741-5.012c.074-.122.182-.338.411-.807.083-.17.171-.352.259-.534.031-.063.059-.122.117-.242l.289-.6Zm-33.537-1.6h8.39v7.611h-8.39Zm-9.916-18.306h8.39v7.627h-8.39Zm0,9.153h8.39v7.627h-8.39Zm0,9.153h8.39v7.611h-8.39Zm-9.916-9.153H466.5v7.627h-8.391Zm0,9.153H466.5v7.611h-8.391Zm-9.915-9.153h8.39v7.627h-8.39Zm0,9.153h8.39v7.611h-8.39Zm-9.916,0h8.39v7.611h-8.39Zm72.85,3.458c-.094.193-.174.355-.236.476-.033.066-.06.119-.134.251a8.5,8.5,0,0,1-4.905,4.3,14.372,14.372,0,0,1-5.451.672l-.4-.008-.525-.009-.2.491c-6.672,16.732-21.243,25.625-40.479,25.625-11,0-18.172-4.164-22.131-11.27a26.123,26.123,0,0,1-2.954-8.967,24.376,24.376,0,0,1-.185-5.87h3.217v.005h51.1V49.91a13.057,13.057,0,0,0,7.264-2.071l.625-.486-.5-.612a8.786,8.786,0,0,1-1.735-4.581,12.341,12.341,0,0,1,1.784-7.558l.338-.511.487.327c2.961,2.313,4.481,4.882,4.642,7.864l.051.944.908-.244c2.97-.8,7.319-.409,8.914.664l.59.4Z" transform="translate(-4.51 -4.721)" style="fill:#006fb6"/><path d="M485.144,74.5a1.139,1.139,0,1,1-1.135-1.109A1.113,1.113,0,0,1,485.144,74.5Zm-1.994,0a.859.859,0,0,0,.865.886.886.886,0,0,0-.006-1.771A.861.861,0,0,0,483.15,74.5Zm.683.582h-.257V73.971a2.26,2.26,0,0,1,.426-.034.691.691,0,0,1,.385.081.306.306,0,0,1,.108.244.284.284,0,0,1-.229.256v.014a.326.326,0,0,1,.2.27.831.831,0,0,0,.082.278h-.278a.987.987,0,0,1-.088-.271c-.02-.122-.087-.176-.229-.176h-.122Zm.006-.629h.122c.142,0,.257-.047.257-.162s-.074-.169-.236-.169a.617.617,0,0,0-.143.013Z" transform="translate(-4.51 -4.721)" style="fill:#006fb6"/><g id="layer1"><path id="path2900" d="M322.085,285.4a22.679,22.679,0,0,1-5-4.66,37.807,37.807,0,0,1-6.307-11.314c-.873-2.652-1.173-5.5-2.3-8.046-1.178-1.853.2-3.877,2.231-4.466.9-.173,2.491-1.025.574-.416-1.719,1.261-1.885-1.145-.123-1.3a1.4,1.4,0,0,0,1.235-2.031c-1.291-.842,3.13-1.768.906-3.024-2.318-2.5,3.242-2.982,1.87-.142-.328,2.184,3.885-.4,2.907,2.122.994,1.211,3.721.275,3.654,1.974,1.447.1,1.944,1.318,3.3,1.411,1.408.636,3.961,1.137,4.44,2.724-1.4,1.106-4.633-2.285-4.788.777.422,4.523.315,9.183,1.969,13.49.783,2.608,2.681,4.661,4.394,6.692a19.215,19.215,0,0,0,6.125,4.569,25.223,25.223,0,0,0,6.29,1.948c.878-.672,2.428-3.168,3.8-2.115.065,1.182-2.718,2.472-.131,2.341,1.519-.458,2.573,1.175,3.824-.3,1.152,1.365,4.79-.872,3.97,1.918-1.109.715-2.726.283-3.837,1.267-1.831-.914-3.289.819-5.316.6a39.028,39.028,0,0,1-6.824.57c-3.744-.3-7.568-.421-11.13-1.724a22.564,22.564,0,0,1-5.729-2.869Zm3.162,1.37a22.237,22.237,0,0,0,6.023,2.01c3.407.474,6.926,1.2,10.345.538-1.548-.7-3.147.272-4.689-.5-1.849.4-3.833-.1-5.713-.347a52.626,52.626,0,0,1-6.446-2.843c-2.5-.913,1.293,1.172,1.969,1.341,1.564.887-1.72-.455-2.182-.824-1.31-.735-1.477-.581-.13.165.271.159.539.325.823.46Zm-3.728-2.635c1.9.7-.008-1.335-.879-1.217-.385-.668-1.472-1.091-.7-1.45-1.38.479-1.446-1.822-2.094-1.493-1.46-.461-.568-2.094-2.307-3.1-.159-1.057-1.727-1.973-2.228-3.567-.221-.815-1.772-3.158-.819-.978a30.757,30.757,0,0,0,3.427,5.692,11.744,11.744,0,0,0,3.692,4.563c.566.543,1.113,1.376,1.913,1.546Zm-5.47-6C316.115,277.839,316.4,278.746,316.049,278.126Zm7.744,6.848C324.213,284.786,323.188,284.737,323.793,284.974Zm1.031.376C324.717,284.831,324.353,285.641,324.824,285.35Zm1.29.538C326.728,285.3,325.167,285.52,326.114,285.888Zm2.211,1.233C328.7,286.569,327.131,286.913,328.325,287.121Zm-4.246-2.96C325.033,283.544,322.847,284.152,324.079,284.161Zm.968.482C325.02,284.317,324.7,284.79,325.047,284.643Zm4.837,3.02c.778.49,4.541,1.075,2.185.2C331.674,287.947,327.7,286.74,329.884,287.663Zm-7.679-5.981C322.129,281.354,321,281.32,322.205,281.682Zm2.252,1.312C325.043,282.585,323.24,282.679,324.457,282.994Zm1.894,1.162C327.192,283.839,324.986,283.837,326.351,284.156Zm-5.063-3.472c.913.7,3.68.089,1.4-.418-1.039-.554-3.381-.933-1.785.334l.387.084Zm6.346,3.873C328.014,283.909,326.04,284.187,327.634,284.557Zm-1.928-1.533c2.231.631-1.877-1.411-.551-.232l.294.133.257.1Zm3.865,2.235c2.114.02-1.908-.292,0,0Zm-9.1-5.8C320.393,279.067,319.954,279.494,320.475,279.461Zm12.671,7.8C333.2,286.553,332.456,287.793,333.146,287.264Zm-9.065-5.6C323.954,281.3,323.421,281.654,324.081,281.669Zm-3.405-2.455C321.889,279.141,319.015,278.68,320.676,279.214Zm-4.035-2.608C316.49,276.025,315.321,275.561,316.641,276.606Zm10.592,6.722C327.011,283.075,327.128,283.383,327.233,283.328Zm6.593,4.046C333.8,286.987,333.466,287.52,333.826,287.374Zm-7.177-4.648C326.768,282.227,325.615,282.574,326.649,282.726Zm-4.911-3.113C322.64,279.516,320.292,279,321.738,279.613Zm8.308,5.162C331.453,284.218,328.675,284.5,330.046,284.775Zm-4.322-2.933c1.621.209-1.928-1.1-.355-.118l.355.118Zm5.634,3.464c1.513-.9,1.014,2.118,2.568.255,1.532-1.118-1.323,1.383.565.2,1.365-.914,3.382.433,4.656.872.916-.045,1.807.792,2.746.283,1.808-.487-3.536-.723-2.135-1.587-1.654.482-2.877-.574-3.691-1.634-1.856-.428-4-1.377-4.928-3.019-.377-.617.546.087-.326-.921a13.485,13.485,0,0,1-2.427-3.333c-.9-.479-1-1.887-1.092-.047.007-1.161-1.083-1.943-1.349-1.618,0-1.118,1.167-.557.347-1.385-.177-1.158-.758-2.366-.932-3.674-.272-.631-.039-1.982-.926-.554-.324,1.509-.108-1.854.395-.745.661-1.132-.237-1-.274-.842.431-.954.273-2.309-.112-1.792.229-1.012.362-3.724-.343-3.244.428-1.058.811-4.842-1.045-3.4a7.867,7.867,0,0,0-2.669.579c1.93,1.064-.194.384-.98.215-.1.984-.88.559-1.853.568,1.553.192-.756,1.588-1.646,1.046-1.157.553,1,1.933.023,2.36.12.643-1.773-.232-1.624,1.253-1.123-.472-.155,1.763.407,1.007,1.91.517,1.345,1.7,1.394,2.815-.312.652-1.537-1.533-.273-1.432-1-1.62-1.1-.586-1.931.167-.193.054,2.113,1.07.666,1.572,1.273.2,1.309,1.311,1.568,2.016.765.8.609-.88,1.524.078-.579-.854-3.069-2.4-1.064-1.907-.011-.859-.363-1.551.251-1.535.608-1.1-.637,2.716.734,1.316.38-.166.474-1.1,1.156.089.99.974.357,1.68-1.04.788.25.848,1.869,1.151,1.565,2.477.323,1.167.774.737,1.167.67.309,1.133.484.3.5-.239,1.413.3,1.082,1.137,1.524,1.721.974.439-1.394-2.979.278-1.028,1.759,1.588.66,2.251-.919,2,1-.08,1.322,1.351,2.571,1.3,1.14.542,1.911,2.624-.053,1.757-.681-.614-3.092-1.372-1.123-.2a46.516,46.516,0,0,1,5.017,2.4c1.255.9,1.8,1.922,2.273,2.125-1.055.5-3.179-.4-1.6-.68-.983-.179-2.09-.677-1.148.549.8.669,2.839.6,3.2.674-.31.682-.841.737.012.79-.952.507.306.586.394.876Zm-1.948-5.5c-.579-.606-.729-1.741-.1-.754.322.129,1.03,1.855.1.754Zm6.343,4.029C336.115,283.811,335.764,284.109,335.753,283.835ZM328.5,278.32C328.473,277.4,328.705,279.026,328.5,278.32Zm-.63-.848C327.136,276.063,328.784,277.87,327.865,277.472Zm-7.639-5.273C320.654,272.085,320.436,272.931,320.226,272.2Zm6.08,3.3C326.569,274.507,326.615,276.323,326.306,275.5Zm-4.3-2.987C321.708,271.963,322.644,273.019,322.01,272.508Zm3.687,1.182c-.691-1.548.489-.846.152.253l-.152-.253Zm-6.357-4.24a4.9,4.9,0,0,1-.655-2.451c.148.74,1.574,3.186.7,1.013-.967-1.822,1.156.591,1.374,1.046.1.452-.6-.124-.123.936C319.772,268.787,320.126,270.66,319.34,269.45Zm-1.965-1.354C317.456,266.916,317.825,268.906,317.375,268.1Zm.884.3C318.68,267.51,318.974,269.642,318.259,268.4Zm-2.126-1.644c-.732-.727-1.261-1.4.034-.451.5.019-1.109-1.524.12-.49C317.579,266.05,316.925,267.933,316.133,266.756Zm1.117-.029C317.674,266.306,317.475,267.141,317.25,266.727Zm.687.22C317.293,265.74,318.718,267.453,317.937,266.947Zm-1.366-1.305c-2.127-1.893,2.672.989.347.351l-.347-.351Zm6.092,3.54c-.92-.552-.244-3.885.07-1.605.895-.29-.049,1.177.618,1.163C323.246,269.665,322.947,270,322.663,269.182Zm2.254,1.331C325.007,269.509,325.107,271.2,324.917,270.513Zm-.392-.386C324.626,269.7,324.536,270.632,324.525,270.127Zm-7.537-5.107c-1.366-1.885,3.97,1.906.875.478C317.539,265.413,317.15,265.383,316.988,265.02Zm4.339,2.3c-.129-1.587.289.263,0,0Zm3.3,2.113C324.877,268.53,324.641,270.032,324.622,269.434ZM317.2,264.3c.812-.174,3.365,1.426,1.021.457C317.957,264.469,317.4,264.6,317.2,264.3Zm7.07,3.475c-.011-1.623.387-.97-.246.232l.246-.232Zm-6.465-4.04c.33-.485-.879-2.194.174-.613.455.361,1.316.605.555.757C319.728,264.936,318.24,264.166,317.8,263.736Zm6.022,3.533C324.053,265.42,324.026,268.352,323.824,267.269Zm-6.713-5.24C317.363,261.921,317.244,262.365,317.111,262.029Zm1.571.935C319.086,262.115,319.427,263.91,318.682,262.964Zm4.431,2.465C323.109,265.1,323.2,265.9,323.113,265.429Zm-.257-.568C322.241,263.343,323.428,265.664,322.856,264.861Zm-.377-1c-.1-.627.351.787,0,0Zm.614-1c-.422-.744.533-3.278.64-1.707-.446,1.225-.129,1.91.182.267.574-1.292-.124,2.551-.822,1.44Zm.632-3.769C323.909,258.872,323.766,259.37,323.725,259.1Zm-1.055,20.785C322.42,279.664,322.7,280.021,322.67,279.883Zm2.173,1.1c1.209.31,1.2-.188.11-.336-.587-.547-2.441-1.127-.782-.068.11.278.457.272.672.4Zm-4.291-2.851c.665.5,2.508,1.408.948.189.526-.611-1.006-.936-.5-1.344-1.293-.791-1.02-.721-.114-.7-1.554-.695.224-.643.141-1-.6-.118-2.976-1.056-1.578.077-1.421-.724-.339.27-.768.165-1.454-.4,1.294,1.107-.231.734.834.661,2.244,1.693.352.7-.249.359,1.354.9,1.748,1.175Zm2.272,1.306C325.587,280.327,321.469,278.349,322.824,279.437Zm11.634,7.048C334.493,285.936,334.08,286.952,334.458,286.485Zm1.2.5c.637-.618.026.984,1.056-.151.011-.813-.032-1.293-1.184-.306-.318.176-.46.925.128.457Zm-18.981-11.92C316.477,274.3,315.3,274.3,316.673,275.068Zm1.277.836C317.476,275.118,316.258,275.193,317.95,275.9Zm7.263,4.381c.71.63,3.258.462.862.077C325.72,279.838,323.822,279.964,325.213,280.285Zm9.986,6.167C336.29,285.536,334.141,286.86,335.2,286.452Zm2.27,1.56C337.476,287.718,337,288.14,337.469,288.012Zm0-.412c1.209-1.28-1.171.076,0,0Zm-23.94-15.161c-1.03-1.47-.64-2.131-1.633-3.331-.188-.918-1.7-3-.785-.794C311.957,269.6,312.208,271.6,313.532,272.439Zm23.561,14.754C339.317,285.756,336.18,286.567,337.093,287.193Zm1.7.665C339.9,286.9,338.086,287.658,338.791,287.858Zm-22.5-14.415C316.613,272.969,315.471,273.382,316.294,273.443ZM338.436,287.4c1.078-.695-.248-.588-.195.064l.195-.064ZM323.8,278.181C323.767,277.712,323.234,278.221,323.8,278.181Zm.9.52C324.421,278.12,324.266,278.793,324.708,278.7Zm15.458,9.173c1.382-1-.837-.191-.29.189l.29-.189Zm-.529-.256C340.763,286.675,338.449,288.036,339.637,287.618Zm2.7,1.8C343.1,288.912,341.422,289.254,342.34,289.418ZM316.987,273.1c1.013.227,4.047,2.494,2.257.157-.917-.272-.367-2.513-1.3-2.116.628,1.049.517,1.5-.8.834-1.657-.809-.931.4-.607.734-.442.1.583.383.453.391Zm-4.614-3.644c.182-.75-1.669-4.125-.874-1.691C311.787,268.276,311.757,269.242,312.373,269.457Zm8.469,5.221C320.32,274.242,320.817,274.617,320.842,274.678Zm1.284.3C322.125,274.183,320.707,274.655,322.126,274.977Zm11.128,7.015c-.212-.542-.839-.012,0,0Zm.535.391C333.71,282.079,333.481,282.441,333.789,282.383Zm4.411,2.778C338.624,284.848,337.67,285.121,338.2,285.161Zm-23.522-15.115C315.891,269.576,313.378,269.711,314.678,270.046Zm17.6,11.086C332.261,280.346,331.5,281.326,332.275,281.132Zm-18.076-12.2C314.978,268.665,313.478,268.755,314.2,268.928Zm2.262,1.1C316.447,269.766,316.222,270.122,316.461,270.024Zm27.594,16.921c1-.2,3.286.511,3.656-.265-1.218-.03-4.211-.859-4.353.2l.266.041.431.026Zm-26.875-16.74C317.2,269.409,316.559,270.176,317.18,270.205Zm-5.948-4.126C310.962,264.563,310.2,265.85,311.232,266.079Zm1.418.357C312.668,265.949,311.352,266,312.65,266.436Zm.811.4C313.226,266.644,313.277,267.074,313.461,266.834Zm5.1,3.272C318.8,269.885,317.993,269.942,318.561,270.106Zm-5.64-4.17C312.784,264.791,311.278,265.764,312.921,265.936Zm-2.908-1.887C309.971,263.52,309.729,264.249,310.013,264.049Zm.432-.327C310.375,263.1,310.074,263.8,310.445,263.722Zm2.39,1.427c1.011-.4-1.84-.821-.206-.075Zm31.987,19.758C345.469,284.314,344,284.723,344.822,284.907Zm3.865,2C348.946,286.143,348.034,287.011,348.687,286.91ZM313.08,263.9C313.186,263.155,312.278,264.044,313.08,263.9Zm-3.4-2.189c-.182-1.136-.157-2.974,1.59-2.353-2.333.463,1.614,2.9,1.116.976.98.048,1.918-.58,1.4.373,1.933-.214,3.272-1.889,5.139-1.655a20.349,20.349,0,0,0,4.61-.923c1.288-.093,2.528-1.48,1.822-2.3a19.978,19.978,0,0,0-5.537.457c-2.152.448-4.106,1.3-6.277,1.662-2.116.284.426.783-.18.894-1.1.383,1.316.642-.143,1.046-.9-.172-1.84-.482-1.455-1.432-2.027.263-3.808,1.105-2.207,3.011l.119.246Zm4.884-2.576c.475-1.751,2.546,1.44.779.232A1.1,1.1,0,0,0,314.563,259.131Zm.093-.849C315.342,257.771,315.02,258.568,314.656,258.282Zm.871.014c.062-.806,1.993.426.318.29l-.318-.29Zm1.191-.479C317.153,257.308,316.843,258.269,316.718,257.817Zm.305-.2c.724-.871,4.1-.556,1.63-.085C317.99,257.029,317.482,257.822,317.023,257.613Zm4.408-.68C321.321,254.555,323.621,257.778,321.431,256.933Zm1.251-.007c.457-1.2,1.775-.481.212-.241C322.928,256.813,322.848,257.3,322.682,256.926Zm-10.1,6.355c1.367-.836-1.45-.726,0,0Zm1.011.281C314.076,263.053,312.556,263.355,313.6,263.562Zm-2.977-2.113C311.4,260.849,309.7,261.221,310.62,261.449Zm40.347,25.242C350.99,286,350.371,287,350.967,286.691Zm-4.1-2.8C346.984,283.092,346.341,283.963,346.868,283.893Zm5.227,3.068c1.092,0,3.307-.339.932-.338-.372.058-2.172.045-.932.338Zm-37.61-23.89c.884-.061,1.383-.975-.17-.922-2.407-.249,2.123.824-.309.517C313.679,262.883,314.466,263.131,314.485,263.071Zm.779.394C315.171,262.9,314.99,263.766,315.264,263.465Zm.922-2.461C316.57,260.528,315.656,260.877,316.186,261Zm-2.938-4.912c1.577-.536,3.733-1.139,4.478.264-.758-.911-.306-1.809.41-.476,1.011,1.349,1.518-.613.86-1.066.75.932,1.6,1.372.5.059,1.2-1.439-2.395.188-3.212.172C315.893,255.221,312.231,255.979,313.248,256.092Zm.924-1.769c.9-.679,3.11.4,1.692-.675C315.725,253.526,312.757,254.466,314.172,254.323Zm3.279.135c1.052.027-.454-1.414.8-.761-.206-.673-1.46-.8-2.073-1.068C315.831,253.245,316.883,254.466,317.451,254.458Zm-2.7-2.976C315.111,250.989,314.109,251.732,314.747,251.482Zm1.34.321c1.7-.225-.432-.731-.342-.018l.342.018Zm-2.5-1.958c-1.194-1.559,2.246.262,1.033-1.37C313.6,247.662,312.615,249.39,313.585,249.845ZM328.91,258.1c.548-.971-2.261-1.309-.369-.344C328.715,257.814,328.676,258.167,328.91,258.1Z" transform="translate(-4.51 -4.721)"/></g></svg>