<svg id="レイヤー_1" data-name="レイヤー 1" xmlns="http://www.w3.org/2000/svg" viewBox="0 0 368.157 64.048"><title>logo</title><line x1="41.263" y1="41.931" x2="92.812" y2="25.335" style="fill:#1d2088;stroke:#c30d23;stroke-miterlimit:10;stroke-width:5.4px"/><polyline points="2.553 62.64 16.709 21.505 24.006 39.428 31.886 10.978 41.023 50.6 47.429 48.63 50.056 56.948 72.603 12.729 83.11 42.501" style="fill:none;stroke:#0b3a95;stroke-miterlimit:10;stroke-width:5.4px"/><path d="M113.608,46.923h-6.56l-7.38-10.988h-.7V46.923h-5.33V19.576h7.913c3.034,0,5.453.656,6.97,1.927a8.071,8.071,0,0,1,2.706,6.15,8.009,8.009,0,0,1-2.459,6.027A7.336,7.336,0,0,1,105,35.4Zm-13.079-14.76c3.363,0,5.207-1.476,5.207-4.182s-1.762-4.1-5.125-4.1h-1.64v8.282Z" transform="translate(-4.447 -1.772)" style="fill:#053989"/><path d="M132.591,19.576h6.724L127.753,32.2,139.93,46.923h-7.011l-9.717-12.3-.656.656V46.923h-5.33V19.576h5.33V31.138Z" transform="translate(-4.447 -1.772)" style="fill:#053989"/><path d="M148.663,24.209v6.068h9.43V34.91h-9.43v7.381h9.8v4.632H143.333V19.576h15.129v4.633Z" transform="translate(-4.447 -1.772)" style="fill:#053989"/><path d="M166.866,46.923V24.209h-6.108V19.576h17.589v4.633H172.2V46.923Z" transform="translate(-4.447 -1.772)" style="fill:#053989"/><path d="M212.007,46.923h-6.56l-7.38-10.988h-.7V46.923h-5.33V19.576h7.913c3.034,0,5.453.656,6.97,1.927a8.071,8.071,0,0,1,2.706,6.15,8,8,0,0,1-2.46,6.027A7.329,7.329,0,0,1,203.4,35.4Zm-13.079-14.76c3.362,0,5.207-1.476,5.207-4.182s-1.763-4.1-5.125-4.1h-1.64v8.282Z" transform="translate(-4.447 -1.772)" style="fill:#053989"/><path d="M220.945,24.209v6.068h9.43V34.91h-9.43v7.381h9.8v4.632H215.615V19.576h15.129v4.633Z" transform="translate(-4.447 -1.772)" style="fill:#053989"/><path d="M241.24,46.923h-5.33V19.576h8c3.567,0,5.494.574,7.216,2.091a8.834,8.834,0,0,1,2.788,6.6,9.063,9.063,0,0,1-2.214,6.109c-1.558,1.64-3.772,2.419-7.011,2.419H241.24Zm2.173-14.76c3.321,0,5-1.312,5-3.936a3.959,3.959,0,0,0-1.394-3.157c-.82-.615-1.968-.861-3.936-.861H241.24v7.954Z" transform="translate(-4.447 -1.772)" style="fill:#053989"/><path d="M285.684,33.27c0,8.077-6.437,14.269-14.76,14.269A14.218,14.218,0,0,1,256.45,33.065c0-7.79,6.561-14.1,14.679-14.1A14.274,14.274,0,0,1,285.684,33.27Zm-23.74-.123a9.125,9.125,0,1,0,9.1-9.307A9.289,9.289,0,0,0,261.944,33.147Z" transform="translate(-4.447 -1.772)" style="fill:#053989"/><path d="M310.57,46.923h-6.559l-7.38-10.988h-.7V46.923H290.6V19.576h7.913c3.034,0,5.453.656,6.969,1.927a8.071,8.071,0,0,1,2.706,6.15,8.006,8.006,0,0,1-2.46,6.027A7.329,7.329,0,0,1,301.96,35.4Zm-13.079-14.76c3.363,0,5.207-1.476,5.207-4.182s-1.762-4.1-5.125-4.1h-1.639v8.282Z" transform="translate(-4.447 -1.772)" style="fill:#053989"/><path d="M317.418,46.923V24.209h-6.109V19.576H328.9v4.633h-6.149V46.923Z" transform="translate(-4.447 -1.772)" style="fill:#053989"/><path d="M337.672,24.209v6.068h9.43V34.91h-9.43v7.381h9.8v4.632H332.342V19.576h15.129v4.633Z" transform="translate(-4.447 -1.772)" style="fill:#053989"/><path d="M372.6,46.923h-6.56l-7.38-10.988h-.7V46.923h-5.33V19.576h7.913c3.034,0,5.453.656,6.97,1.927a8.075,8.075,0,0,1,2.706,6.15,8.01,8.01,0,0,1-2.46,6.027,7.336,7.336,0,0,1-3.773,1.722Zm-13.08-14.76c3.363,0,5.207-1.476,5.207-4.182s-1.762-4.1-5.125-4.1h-1.639v8.282Z" transform="translate(-4.447 -1.772)" style="fill:#053989"/></svg>